<svg id="Layer_1" data-name="Layer 1" xmlns="http://www.w3.org/2000/svg" viewBox="0 0 24 24"><defs><style>.cls-1{fill:#b3bb05;}.cls-2{fill:#f1f2f1;}</style></defs><path class="cls-1" d="M13.73,2.93a10,10,0,1,1-10,10A10,10,0,0,1,13.73,2.93Zm0-2a12,12,0,1,0,12,12A12,12,0,0,0,13.73.93Z" transform="translate(-1.73 -0.93)"/><path class="cls-2" d="M13.73,6.47a1.25,1.25,0,1,1-1.25,1.25A1.25,1.25,0,0,1,13.73,6.47Zm2,12.25h-4v-1c.48-.18,1-.21,1-.74V12.51c0-.53-.52-.61-1-.79v-1h3V17c0,.54.51.56,1,.74Z" transform="translate(-1.73 -0.93)"/></svg>