<svg xmlns="http://www.w3.org/2000/svg" width="150" height="158.993" viewBox="0 0 150 158.993">
  <g id="Group_83" data-name="Group 83" transform="translate(-600.186 -1786.985)">
    <path id="Path_1968" data-name="Path 1968" d="M675.186,1802a74.991,74.991,0,0,0-40.148,138.335c-1.132-5.1-5.4-11.132-5.4-11.132a26.088,26.088,0,0,1,9.83,9.632,7.686,7.686,0,0,0,.361-3.8c-.538-3.9-3.057-9.493-9.738-14.493a33.908,33.908,0,0,1,12.851,8.657,20.294,20.294,0,0,1,2.354,2.7c-.468-3.788-1.324-8.793-2.779-11.557,0,0,9.1,6.882,8.879,14.182-.106,3.554-1.439,4.209-2.78,3.948l.111.3c1.846,5.239,22.985,6.65,31.6,3.4,2.913-1.1,5.037-1.946,6.683-2.718a5.412,5.412,0,0,1-.276-3.485c1.114-7.221,11.314-12.327,11.314-12.327-2.023,2.565-3.849,7.661-4.992,11.35.141-.167.291-.339.441-.519,2.83-3.4,7.822-13.814,13.365-16.531,0,0-6.618,7.859-6.19,16.912a27.359,27.359,0,0,1,7.389-6.329s-3.071,11.383-3.125,17.328A75,75,0,0,0,675.186,1802Zm-27.243,113.448c-.274.389-1.367.355-1.487-.822-.062-.588.211-.726.5-.716a.95.95,0,0,1,.8.513C647.926,1914.746,648.114,1915.206,647.943,1915.446Zm2.482,3.48c-.425.595-2.093.543-2.272-1.254-.089-.9.329-1.109.769-1.094a1.449,1.449,0,0,1,1.217.784C650.4,1917.852,650.686,1918.56,650.425,1918.926Zm2.339-5.144c-.714,1.466-1.786,1.352-2.086.32s-2-.952-1.769-2.819a1.715,1.715,0,0,1,.61-1.178l.065-.047a1.568,1.568,0,0,1,2.18.4C652.4,1911.349,653.235,1912.815,652.764,1913.782Zm-.2-9.3c-.471-1.453-3.92-1.149-3.664-3.825a2.449,2.449,0,0,1,.818-1.706c.97-.822,2.275.883,3.042,1.9.933,1.234,1.464,1.692,1.739,3.2C654.826,1905.836,653.038,1905.94,652.566,1904.482Zm48.2,13.668c-.214.757-.611,1.764-1.236,1.885-1.017.2-2.675-1.488-1.106-3.508.786-1.01,1.42-.817,1.857-.371A2.053,2.053,0,0,1,700.762,1918.15Zm2.663-3.676c-.384.545-1.912.5-2.073-1.145-.085-.822.3-1.014.7-1a1.326,1.326,0,0,1,1.112.716C703.4,1913.493,703.664,1914.14,703.425,1914.474Zm4.356,11.064c-.387.547-1.723.742-1.887-.9-.082-.821.3-1.013.7-1a1.326,1.326,0,0,1,1.113.716A1.089,1.089,0,0,1,707.781,1925.538Zm2.023,11.2c-.681,1.373-2.435,1.007-1.851-.71.491-1.452,1.091-1.827,2.191-2.913.908-.893,2.45-2.388,3.287-1.428a2.439,2.439,0,0,1,.558,1.807C713.852,1936.173,710.485,1935.365,709.8,1936.738Z" fill="#010202"/>
    <g id="Group_82" data-name="Group 82">
      <path id="Path_700" data-name="Path 700" d="M684.32,1834.489v.007" fill="none" stroke="#bd42e3" stroke-width="1"/>
      <path id="Path_701" data-name="Path 701" d="M720.722,1831.664c-.286,2.208-1.812,4.755-5.89,4.583s-8.379-3-9.343-4.469c0,0-4.526,1.979-7.13,1.188,0,0,.677,2.828.053,4.245-.1.229-.258.539-.458.906a1.248,1.248,0,0,1-.086.162c-.033.062-.067.129-.1.2a2.356,2.356,0,0,1-.119.219c-.124.234-.257.482-.4.739-.048.086-.1.172-.143.262a31.294,31.294,0,0,0-1.459,3.047c-.053.138-.1.277-.153.41-.029.081-.057.162-.081.238s-.048.148-.072.224c-.048.157-.086.31-.119.458-.019.072-.033.138-.048.21v.014c-.014.1-.029.2-.038.286a.2.2,0,0,1-.01.076c0,.067-.01.129-.01.191a1.748,1.748,0,0,0,.014.229,4.3,4.3,0,0,0,.124.625,12.483,12.483,0,0,0,1.97,3.677s.329-.339.863-.863c.625-.615,1.54-1.493,2.532-2.38h0l.009-.01a18.392,18.392,0,0,1,4.517-3.257c2.494-.906,4.755,1.192,7.587,2.38,2.385,1,4.607,3.047,5.246,5.017a.018.018,0,0,1,0,.014,3.5,3.5,0,0,1,.186,1.083,23.094,23.094,0,0,1-.172,2.38h0c-.248,2.256-.682,4.917-.682,6.052,0,1.583-2.2,2.432-5.265.849s-4.474-3.172-4.412-6.114h0c-.019.048-.162.42-.41.93-.091.191-.2.4-.315.625a11.456,11.456,0,0,1-.682,1.135,5.837,5.837,0,0,1-1.092,1.235,1.125,1.125,0,0,1-.128.1,1.442,1.442,0,0,1-.144.1,3.752,3.752,0,0,0-.281.472,17.185,17.185,0,0,0-1.645,6.887c-.029.453-.038.968-.034,1.54.014,1.073.076,2.351.177,3.777.463,6.567,1.613,16.244,1.1,23.555-.569,8.165-2.647,13.859-5.575,17.422q-.207.258-.429.5c-.134.153-.267.3-.405.439-.119.124-.239.243-.363.358-.191.186-.386.362-.587.534l-.138.439-2.509,7.955-4.426,14.055c-.562,1.159-2.475,4.283-7.492,6.615a25.762,25.762,0,0,1-3.61,1.34,34.7,34.7,0,0,1-6.119,1.168,47.993,47.993,0,0,1-5.17.262c-9.409,0-14.679-2.7-17.6-5.465-.069-.064-.135-.129-.2-.193a5.6,5.6,0,0,1-1.315-6.017q.325-.852.658-1.722c.4-1.054.806-2.122,1.207-3.2,2.547-6.786,5.041-13.826,6.41-18.709a26.955,26.955,0,0,0,1.073-5.136c.272-5.928-1.913-7.488-6.834-10.182l-1.083-.591c-.119-.067-.238-.129-.362-.2a1.576,1.576,0,0,0-.153-.081c-.377-.21-.768-.42-1.173-.644l-.358-.2c-.243-.134-.486-.272-.739-.415-.119-.067-.238-.138-.353-.205a2.707,2.707,0,0,1-.262-.162c-.085-.062-.2-.124-.3-.186s-.191-.124-.281-.186l-.144-.1c-.128-.091-.258-.181-.382-.272-.091-.067-.186-.138-.272-.205-.056-.048-.114-.091-.167-.133l-.081-.067c-.033-.024-.066-.052-.1-.081a.3.3,0,0,0-.047-.038l-.014-.01c-.043-.038-.086-.072-.124-.11s-.086-.072-.129-.11-.067-.062-.1-.091-.067-.062-.1-.091a11.34,11.34,0,0,1-1.054-1.106l-.014-.014c-.077-.1-.153-.186-.224-.281-.038-.043-.067-.086-.1-.129-.019-.024-.038-.052-.057-.076-.124-.167-.238-.329-.348-.5-.028-.048-.062-.1-.091-.148-.062-.1-.124-.191-.181-.291l-.167-.291c-.024-.043-.043-.086-.067-.129-.076-.138-.143-.277-.215-.42a1,1,0,0,0-.043-.1c-.062-.129-.119-.258-.172-.386h0a.469.469,0,0,0-.033-.072.252.252,0,0,0-.019-.057,1.157,1.157,0,0,1-.048-.114.422.422,0,0,1-.024-.067c-.033-.081-.062-.167-.091-.253-.024-.067-.047-.129-.066-.2s-.058-.157-.081-.238q-.093-.3-.172-.6c-.019-.081-.038-.157-.057-.238v-.029c-.029-.114-.052-.224-.076-.334-.019-.086-.038-.167-.053-.248l-.028-.162c-.038-.21-.072-.415-.1-.625-.324-2.27-.21-4.574-.348-6.72-.057-.877-.167-1.97-.305-3.186-.453-3.911-1.24-9.123-1.755-12.915-.281-2.1-.481-3.768-.486-4.521-.024-2.132,2.06-4.407,3.849-6.157.258-.253.507-.491.739-.715.559-.534,1.04-1,1.359-1.364a2.268,2.268,0,0,0,.167-.2,14.108,14.108,0,0,0,.939-1.536c.591-1.059,1.345-2.518,2.122-4.092a63.8,63.8,0,0,0,3.958-9.29.853.853,0,0,0,.024-.114c.334-1.712,1.822-1.912,3.329-1.493a8.016,8.016,0,0,1,2.28,1.068s-.768-11.89-.257-14.35,4.33-5.69,6.028-11.126,2.89-7.13,6.033-9.762a42.456,42.456,0,0,0,4.125-4.388h0c.158-.181.32-.362.491-.544.291-.315.6-.634.92-.959.363-.358.739-.711,1.116-1.049a23.432,23.432,0,0,1,3.787-2.737c.277-.162.544-.3.8-.42h0c4.893-2.227,6.543,3.229,5.818,8.146-.768,5.179-9.6,11.718-9.6,11.718s-1.106,6.71-3.4,9.681a36.768,36.768,0,0,0-1.173,7.569,5.2,5.2,0,0,0,.043.634c.01.072.019.138.029.205,0,0,.253-1.335.625-2.99a28.292,28.292,0,0,1,1.75-5.842c1.021-1.7,7.9-5.179,9.176-6.114s7.044-6.538,10.1-6.877c1.816-.2,4.083-.1,6.353-.172l.792-.029a19.609,19.609,0,0,0,3.729-.482c1.97-.477,3.638-1.04,4.979-.854h0a2.7,2.7,0,0,1,1.531.706,4.277,4.277,0,0,1,.962,1.421c1.44,3.224-1.7,9.991-14.492,10.669,0,0-3.8,5.833-8.661,6.4,0,0-1.927.505-2.041,1.922a82.624,82.624,0,0,1-1.245,10.125c.277-.868.706-2.141,1.253-3.458h0a22.079,22.079,0,0,1,1.56-3.114,6.084,6.084,0,0,1,2.17-2.3c3-1.469,3.85-.62,8.208-1.922s6.739-2.323,8.379-2.38,6.682,2.661,7.927,4.359a2.062,2.062,0,0,0,.172.21c1.044,1.207,3.834,3.048,5.365,4.764a6.175,6.175,0,0,1,.677.9h0A2.011,2.011,0,0,1,720.722,1831.664Z" fill="#ae32aa"/>
      <path id="Path_702" data-name="Path 702" d="M714.157,1824.531c-.68-.712-7.3-3.789-8.959-3.662s-5.9,2.972-8.365,3.142-4.246.255-6.051,1.231c-1.782.963-4.78,4.55-4.865,4.65a22.208,22.208,0,0,1,1.558-3.116,6.06,6.06,0,0,1,2.169-2.3c3-1.472,3.848-.623,8.208-1.926s6.737-2.32,8.378-2.378S712.908,1822.832,714.157,1824.531Z" fill="#dc40d9"/>
      <path id="Path_703" data-name="Path 703" d="M717.987,1850.27a7.267,7.267,0,0,0-4.973-3.925c-3.091-.764-5.632-2.933-7.471-2.733-1.776.194-4.676,2.361-4.91,2.519a18.473,18.473,0,0,1,4.519-3.257c2.491-.905,4.756,1.189,7.587,2.377C715.122,1846.252,717.345,1848.3,717.987,1850.27Z" fill="#dc40d9"/>
      <path id="Path_704" data-name="Path 704" d="M699.1,1803.471a15.525,15.525,0,0,1-5.33,1.263c-2.8.17-3.821,1.529-6.284,3.822s-8.577,6.2-11.294,7.133c-1.834.63-3.55,4.4-4.469,6.785a28.083,28.083,0,0,1,1.751-5.841c1.019-1.7,7.9-5.18,9.171-6.114s7.048-6.539,10.105-6.879C694.569,1803.439,696.833,1803.537,699.1,1803.471Z" fill="#dc40d9"/>
      <path id="Path_705" data-name="Path 705" d="M697.416,1913.618c-.191.186-.386.362-.587.534l-.138.439-2.509,7.955-4.426,14.055c-.562,1.159-2.475,4.283-7.492,6.615,2.676-8.384,8.852-23.1,11.708-29.779.92-2.156,1.5-3.477,1.5-3.477Z" fill="#832674"/>
      <path id="Path_706" data-name="Path 706" d="M670.136,1798.316c-3.935,3.283-4.218,4.076-5.237,8.492s-5.661,8.265-6.454,13.7c-.784,5.387.489,14.457.511,14.618h0a5.741,5.741,0,0,1-1.253-.245,15.011,15.011,0,0,0-1.378-2.03h0s-.764-11.889-.255-14.351,4.331-5.69,6.029-11.125,2.888-7.133,6.03-9.766,4.925-6.454,10.445-9.681C678.771,1790.11,674.071,1795.036,670.136,1798.316Z" fill="#dc40d9"/>
      <path id="Path_707" data-name="Path 707" d="M649.954,1843.044a4.609,4.609,0,0,1-3.312-.4,65.028,65.028,0,0,1,3.963-9.314,5.863,5.863,0,0,1,.613.533l-.725,2.239,1.267-1.634a4.39,4.39,0,0,1,1.04,2.507C652.884,1839.095,651.809,1842.634,649.954,1843.044Z" fill="#ddd"/>
      <path id="Path_708" data-name="Path 708" d="M717.04,1857.524c-.6-.185-1.249-.373-1.828-.558l-.91-2.616.236,2.388c-.637-.233-1.068-.457-1.023-.657-.977-4.2-.422-5.055.75-5.409,1.246-.375,3.253.17,3.029,2.3C717.082,1854.988,717.04,1857.524,717.04,1857.524Z" fill="#ddd"/>
      <path id="Path_709" data-name="Path 709" d="M718.379,1829.346l-2.357-1.118,1.314,1.188c-.625.062-.691.154-.691.154-1.473-.284-5.775-2.831-5.039-3.963s3.014-.842,3.014-.842a22.893,22.893,0,0,1,5.328,4.8A6.034,6.034,0,0,0,718.379,1829.346Z" fill="#ddd"/>
      <path id="Path_710" data-name="Path 710" d="M699.887,1803.372s0,.835,1.7.948,7.192-1.653,7.021-2.213S703.454,1802.183,699.887,1803.372Z" fill="#ddd"/>
      <path id="Path_711" data-name="Path 711" d="M669.431,1866.6c-3.171-.34-6.567,2.432-6.567,2.432s-.114,3.908-1.924,4.489-5.549-1.374-7.242.438-6.233,2.152-6.233,2.152,2.266-.454,5.342-4.53,0-10.8,0-10.8a10.926,10.926,0,0,1-5.342-.752s6-.226,7.7-1.7,4.528-9.285,4.755-15.148a15.7,15.7,0,0,0-2.214-8.3,15,15,0,0,0-1.378-2.03,17.162,17.162,0,0,1,2.631,2.273h0c5.039,5.323,6.092,13.054,4.131,16.274-2.264,3.719-1.7,13.492,2.377,13.659S669.431,1866.6,669.431,1866.6Z" fill="#832674"/>
      <path id="Path_712" data-name="Path 712" d="M685.2,1795.659c-.765,5.18-9.6,11.719-9.6,11.719s-1.1,6.709-3.4,9.681c0,0-1.451,5.559-1.133,8.2a43.137,43.137,0,0,0,.623,10.311l-5.207,1.922a6.912,6.912,0,0,0,2.376-7.471c-1.245-5.038.17-12.171.17-12.171a6.219,6.219,0,0,1-5.208-.849,18.379,18.379,0,0,0,6.51-.679c1.813-1.643,3.171-8.04,3.171-8.04a13.854,13.854,0,0,1-5.379-1.189c2.094.17,5.83-1.075,5.83-1.075s8.492-6.34,8.89-12-4.275-6.085-4.275-6.085C684.092,1784.7,685.96,1790.479,685.2,1795.659Z" fill="#832674"/>
      <path id="Path_713" data-name="Path 713" d="M703.088,1871.34c-6.477-2.337-19.366-8.825-23.944-24.445a44.614,44.614,0,0,0,23.766,20.668C702.921,1868.64,702.988,1869.919,703.088,1871.34Z" fill="#832674"/>
      <path id="Path_714" data-name="Path 714" d="M662.3,1851.405s15.172,5.352,19.7,11.516,12.342,16.242,16.757,19.3a23.479,23.479,0,0,1-11.1-8.7c-4.642-6.7-7.586-10.659-11.1-12.244s-15.625-5.951-15.625-5.951S659.692,1852.407,662.3,1851.405Z" fill="#832674"/>
      <path id="Path_715" data-name="Path 715" d="M707.643,1854.536v.005c-.054.139-1.225,3.132-2.773,4.127a3.909,3.909,0,0,0-.28.47,17.87,17.87,0,0,0-3.966-4.66,5.734,5.734,0,0,1-1.867-2.714,3.716,3.716,0,0,0,2.773,1.695,3.647,3.647,0,0,0,2.547-2.055c.4-.81,0-4,0-4a28.417,28.417,0,0,1,.85,3.113c.339,1.642,1.528,1.642,1.81.339a2.692,2.692,0,0,1,1.756-1.755C707.02,1851.026,707.643,1854.536,707.643,1854.536Z" fill="#832674"/>
      <path id="Path_716" data-name="Path 716" d="M720.721,1831.664c-.284,2.208-1.812,4.756-5.888,4.586s-8.378-3-9.342-4.472c0,0-4.529,1.98-7.133,1.189,0,0,.679,2.83.056,4.246s-3.509,5.944-3.283,7.869a4.239,4.239,0,0,0,.124.623c-5.362-1.385-9.181-7.7-9.181-7.7l5.717,3.964a3.3,3.3,0,0,0,3-.849c1.3-1.3,3.4-6.908,1.7-7.7-1.671-.78-3.947-4.083-4.019-4.186a17.633,17.633,0,0,0,6,2.206c3.057.4,4.867-.963,5.49-1.019s-.337-2.831-.337-2.831a23.2,23.2,0,0,0,2.659,3.341c1.754,1.869,5.945,3.792,10.361,3.283,4.325-.5,3.75-3.675,3.725-3.806A2,2,0,0,1,720.721,1831.664Z" fill="#832674"/>
      <path id="Path_717" data-name="Path 717" d="M704.869,1856.177l-.28,2.962c-2.149-2.812-8.211-8.113-11.551-10.886s-6.964-10.248-6.964-10.248l5.717,4.756a6.642,6.642,0,0,1,3.7.394,4.669,4.669,0,0,0-.36,1.928,4.269,4.269,0,0,0,.124.623,12.514,12.514,0,0,0,1.97,3.678s.328-.338.861-.863C700.212,1852.145,704.869,1856.177,704.869,1856.177Z" fill="#832674"/>
      <path id="Path_718" data-name="Path 718" d="M696.6,1814.907s-3.794,5.832-8.662,6.4c0,0-1.926.509-2.038,1.924a82.827,82.827,0,0,1-1.247,10.126s-.372,1.756-.73,2.873c3.172.778,6.68,4.92,6.68,4.92l-1.229,2.66a36.672,36.672,0,0,0-3.3-4.034,9.135,9.135,0,0,0-3.229-1.156,13,13,0,0,0-2.962-.293,6.439,6.439,0,0,1-2.243-.373,22.283,22.283,0,0,1-3.047-1.447,6.842,6.842,0,0,0-4.456-.359l.793-2.225s8.492,2.244,10.19.574,2.718-11.833,2.718-11.833a9.989,9.989,0,0,1-6.2-3.4,21.7,21.7,0,0,0,8.434.847c4.445-.509,8.293-5.774,8.293-5.774a7.1,7.1,0,0,1-4.753-3.31c3.48,2.291,5.857,2.036,5.857,2.036a75.88,75.88,0,0,0,10.445-3.057c4.755-1.868,4.217-7.194,4.217-7.194h0a4.256,4.256,0,0,1,.959,1.418C712.539,1807.463,709.4,1814.227,696.6,1814.907Z" fill="#832674"/>
      <path id="Path_719" data-name="Path 719" d="M706.232,1857.233a5.226,5.226,0,0,1-1.364,1.436,3.9,3.9,0,0,0-.28.47,17.143,17.143,0,0,0-1.644,6.889c-.029.45-.039.965-.034,1.537.011,1.077.078,2.354.178,3.777.461,6.571,1.61,16.247,1.1,23.559-.569,8.164-2.649,13.859-5.576,17.422a14.327,14.327,0,0,1-1.783,1.828l-.137.438c-4.256-.851-5.693-4.832-6.784-6.411-10.765,2.463-17.705.613-17.705.613s13.757-1.547,18.575-5.623,3.5-15.286-1.931-20.946c-5.35-5.574-9.569-16.366-9.7-16.7,6.926,11.492,12.247,16.419,14.6,20.323,1.741,2.884,5.379,9.473,4.659,15.048a10.442,10.442,0,0,0,1.821-3.612c1.816-6.906-.458-13.473-1.618-19.362s1.441-11.53,1.614-16.53c.168-4.924-4.212-10.546-4.346-10.717Z" fill="#832674"/>
      <path id="Path_720" data-name="Path 720" d="M688.788,1910.651c-.081.353-2.742,11.713-4.922,15.5-2.146,3.739-4.56,13.878-5.213,18.4a34.688,34.688,0,0,1-6.119,1.168c2.036-5.418,6.419-16.835,8.217-19.573C683.089,1922.583,688.617,1911.009,688.788,1910.651Z" fill="#832674"/>
      <path id="Path_721" data-name="Path 721" d="M662.862,1869.027s.453,15.457-7.813,20.439c0,0,7.586-9.171,4.756-18.682A3.209,3.209,0,0,1,662.862,1869.027Z" fill="#832674"/>
      <g id="Group_81" data-name="Group 81">
        <path id="Path_722" data-name="Path 722" d="M650.766,1895.359l-1.086-.591-.36-.2c-.051-.027-.1-.056-.154-.083q-.566-.307-1.173-.644l-.359-.2c-.241-.134-.488-.272-.737-.414-.121-.068-.24-.137-.355-.206-.088-.054-.177-.107-.261-.161-.1-.061-.2-.122-.294-.185s-.192-.126-.284-.188-.163-.112-.243-.168c-.192-.134-.375-.27-.552-.409-.022-.015-.046-.034-.068-.051l-.1-.082-.082-.066c-.035-.026-.068-.053-.1-.082-.126-.1-.247-.207-.364-.312-.051-.046-.1-.092-.151-.137a11.289,11.289,0,0,1-1.294-1.4l-.1-.126c-.021-.025-.039-.052-.06-.078-.122-.165-.238-.331-.346-.5-.031-.048-.063-.1-.094-.145-.061-.1-.121-.194-.178-.292-.165-.279-.312-.559-.447-.843-.017-.034-.032-.068-.048-.1-.06-.127-.115-.255-.168-.384-.012-.025-.022-.052-.032-.078s-.017-.037-.024-.056c-.081-.2-.157-.411-.226-.617-.095-.282-.178-.564-.251-.849-.021-.078-.041-.158-.06-.237v-.029c-.027-.112-.051-.222-.074-.334-.019-.083-.036-.165-.051-.248l-.031-.163c-.039-.208-.072-.414-.1-.621,1.3-1.266,4.129-2.375,6.442-1.043,3.1,1.783,3.456,3.753,3.694,9.044C650.609,1892.483,650.724,1894.259,650.766,1895.359Z" fill="#832674"/>
        <path id="Path_723" data-name="Path 723" d="M649.166,1894.492q-.566-.307-1.173-.644l-.358-.2c-.241-.134-.488-.272-.737-.414-.121-.068-.24-.137-.355-.206-.088-.054-.176-.107-.261-.161s-.2-.122-.294-.185-.192-.126-.284-.188-.163-.112-.243-.168c-.192-.134-.375-.27-.552-.409-.058-.044-.114-.088-.168-.133l-.082-.066c-.035-.026-.068-.053-.1-.082-.126-.1-.247-.207-.363-.312-.051-.046-.1-.092-.151-.137a11.29,11.29,0,0,1-1.294-1.4l-.1-.126c-.021-.025-.039-.052-.06-.078-.122-.165-.238-.331-.346-.5-.031-.048-.063-.1-.094-.144-.061-.1-.121-.194-.178-.292-.165-.279-.312-.559-.446-.843-.017-.034-.032-.068-.048-.1-.06-.127-.115-.255-.168-.384-.02-.044-.037-.09-.056-.134-.082-.206-.156-.411-.226-.617a3.459,3.459,0,0,1,2.459-2.614,3.653,3.653,0,0,1,3.152.532c1.486.961,2.517,4.125,2.616,7.553A17.6,17.6,0,0,1,649.166,1894.492Z" fill="#5f1c4b"/>
      </g>
      <path id="Path_724" data-name="Path 724" d="M648.536,1851.779c-1.578-.015-3.466-1.6-5.029-3.271.06-.07.116-.134.163-.2a14.2,14.2,0,0,0,.941-1.537A40.293,40.293,0,0,0,648.536,1851.779Z" fill="#832674"/>
      <path id="Path_725" data-name="Path 725" d="M647.125,1852.745c-1.57.333-3.8-.841-5.717-2.162.255-.25.5-.489.739-.715A20.7,20.7,0,0,0,647.125,1852.745Z" fill="#832674"/>
      <path id="Path_726" data-name="Path 726" d="M640.459,1874.294a2.988,2.988,0,0,1-.657-.119c-.452-3.908-1.24-9.122-1.751-12.911a3.393,3.393,0,0,1,3.925.462c2.662,2.322-1.415,4.332.284,7.289S644.034,1874.52,640.459,1874.294Z" fill="#dc40d9"/>
      <path id="Path_727" data-name="Path 727" d="M672.252,1793.223s.215-.148,1.733-.918,5.825-4.4,5.392-4.794S674.712,1790.38,672.252,1793.223Z" fill="#ddd"/>
      <path id="Path_728" data-name="Path 728" d="M655.9,1929.407c.243,2.848-3.877,2.626-5.781-.017,2.542-6.786,5.037-13.826,6.406-18.711,1.831.4,4.8,1.744,5.489,6.245C663.031,1923.548,655.559,1925.416,655.9,1929.407Z" fill="#dc40d9"/>
      <path id="Path_729" data-name="Path 729" d="M652.671,1936.8a5.568,5.568,0,0,1-2.9,3.725q-.216-.2-.415-.405a5.4,5.4,0,0,1-1.135-5.717q.344-.9.691-1.808C650.916,1933.2,653.277,1934.439,652.671,1936.8Z" fill="#dc40d9"/>
      <path id="Path_730" data-name="Path 730" d="M649.258,1892.037c-3.061-1.676-4.8-5.17-5.768-8.085a3.653,3.653,0,0,1,3.152.532C648.128,1885.446,649.159,1888.61,649.258,1892.037Z" fill="#ddd"/>
      <path id="Path_731" data-name="Path 731" d="M659.066,1929.863a2.289,2.289,0,0,0,3.253,2.772,3.512,3.512,0,0,0,1.4-1.509c1.5-2.892-1.887-4.965-3.749-2.814A4.718,4.718,0,0,0,659.066,1929.863Z" fill="#dc40d9"/>
      <path id="Path_732" data-name="Path 732" d="M661.377,1892.257a2.289,2.289,0,0,0,3.252,2.772,3.518,3.518,0,0,0,1.4-1.509c1.5-2.893-1.887-4.965-3.749-2.813A4.744,4.744,0,0,0,661.377,1892.257Z" fill="#dc40d9"/>
      <path id="Path_733" data-name="Path 733" d="M668.164,1846.263a2.289,2.289,0,0,0,4.265-.271,3.514,3.514,0,0,0-.041-2.061c-.937-3.119-4.809-2.254-4.65.586A4.731,4.731,0,0,0,668.164,1846.263Z" fill="#dc40d9"/>
    </g>
  </g>
</svg>
