<svg xmlns="http://www.w3.org/2000/svg" width="150" height="141.92" viewBox="0 0 150 141.92">
  <g id="Group_93" data-name="Group 93" transform="translate(-571.94 -1820.74)">
    <g id="Group_84" data-name="Group 84">
      <path id="Path_1987" data-name="Path 1987" d="M721.94,1903.13a74.984,74.984,0,0,0-39.8-66.24,1.1,1.1,0,0,0-.11-.06h-.01a72.455,72.455,0,0,0-8.46-3.83.031.031,0,0,0-.02-.01,74.759,74.759,0,0,0-26.6-4.86h-.38c-1.33.01-2.66.05-3.97.13h-.01a73.947,73.947,0,0,0-17.07,2.98c-1.1.32-2.18.67-3.25,1.05-.01.01-.01.01-.02.01h-.01c-.03.01-.06.01-.08.03a75.011,75.011,0,0,0-24.08,127.69c-1.32-8.13-8.61-18.4-8.61-18.4a40.579,40.579,0,0,1,15.26,14.96,11.963,11.963,0,0,0,.56-5.9c-.84-6.05-4.75-14.74-15.12-22.5a52.423,52.423,0,0,1,14.66,8.47h.01a53.88,53.88,0,0,1,5.28,4.97,31.137,31.137,0,0,1,3.66,4.2c-.25-1.97-.56-4.15-.95-6.34v-.03a55.158,55.158,0,0,0-2.38-9.33.037.037,0,0,0-.01-.03.01.01,0,0,0-.01-.01,20.733,20.733,0,0,0-.96-2.2c.05.08.29.44.67,1.05l.01.01c1.03,1.64,3.09,5,5.19,9.07v.01a72.269,72.269,0,0,1,5.3,12.84,24.843,24.843,0,0,1,1.1,7.35,1.922,1.922,0,0,0,.17.88,15.906,15.906,0,0,0,1.16-1.54,17.094,17.094,0,0,0,2.66-6.56,17.36,17.36,0,0,0,.2-4.94,30.405,30.405,0,0,1,.56,4.61,21.539,21.539,0,0,1-1.24,9.17,10.346,10.346,0,0,0,3.91-4.96c-.13.36-.95,3.04.68,4.55a34.491,34.491,0,0,1,1.74-4.78,12.479,12.479,0,0,1,3.12-4.54,13.42,13.42,0,0,0-1.58,4.43,8.494,8.494,0,0,0,.38,4.45,7.867,7.867,0,0,0,.39.84l1.32-1.38,1.38-1.45.23.9.53,2.13.05.21.08-.22.32-.83.73-1.94,1.21-3.19.62-1.62c-.03.14-.16.78-.29,1.6a20.94,20.94,0,0,0-.27,2.69,3.95,3.95,0,0,0,.3,1.89c.16.27.34.37.52.34.73-.06,1.51-1.96,1.51-1.96a22.72,22.72,0,0,0,.85,2.62,9.53,9.53,0,0,0,.42.96,3.073,3.073,0,0,0,.75,1.01c.23.17.62.01,1.07-.37a9.345,9.345,0,0,0,1.62-1.88c1.24-1.82,2.2-4.17,1.23-4.91,0,0,1.75,1.03,1.57,4.71a14.2,14.2,0,0,1-.22,1.77,2.95,2.95,0,0,0,2.16-1.62,4.123,4.123,0,0,1,.58.87,4.378,4.378,0,0,1,.5,2.51,19.2,19.2,0,0,1,.92-3.23c.08-.21.17-.41.26-.61a5.338,5.338,0,0,1,1.52-2.1,12.4,12.4,0,0,0-.4,1.83v.01c-.11.06-.21.13-.32.2l.3-.02c-.15,1.36-.04,3,1.23,3.52a14.053,14.053,0,0,0,3.23-3.85,6.385,6.385,0,0,0,.71-2,4.212,4.212,0,0,0-.51-2.98.01.01,0,0,1,.01-.01,8.24,8.24,0,0,1,1.64,2.96,8.047,8.047,0,0,1,.37,1.87,8.423,8.423,0,0,1-.45,3.47,7.963,7.963,0,0,0,1.99-.39,4.324,4.324,0,0,0,1.54-.85,2.509,2.509,0,0,0,.79-1.2,7.333,7.333,0,0,1,.59.79,2.625,2.625,0,0,1,.49,1.24,10.688,10.688,0,0,0,.71-1.55,9.059,9.059,0,0,0,.5-1.96,4.562,4.562,0,0,0-.33-2.58,4.323,4.323,0,0,0-.34-.53s.19.16.48.43a14.526,14.526,0,0,1,2.17,2.54,6.308,6.308,0,0,1,.57,1.13l.03.09a.818.818,0,0,0-.01-.1c-.03-.18-.07-.59-.11-1.16a21.941,21.941,0,0,1,.34-5.36c.03-.16.07-.31.11-.46a13,13,0,0,1,1.29-3.52,9.443,9.443,0,0,1,.94-1.42,30.413,30.413,0,0,0-.4,4.8,9.9,9.9,0,0,0,.98,4.88,3.434,3.434,0,0,0,.64.72,12.357,12.357,0,0,1-.16-1.27,11.622,11.622,0,0,1,.32-4.46,5.075,5.075,0,0,1,.38-.89s.08.34.25.85a11.248,11.248,0,0,0,1.01,2.19,6.428,6.428,0,0,0,2.06,2.16,12.752,12.752,0,0,1,.12-3.7v-.02c.05-.3.1-.59.17-.88,1.15-5.18,5.23-9.61,9.16-12.81.23-.19.47-.38.7-.56.34-.27.68-.53,1.02-.77.7-.53,1.38-1.01,2.02-1.44,1.29-.86,2.42-1.53,3.22-1.99.72-.41,1.18-.65,1.26-.68a19.8,19.8,0,0,0-1.41,2.08,54.98,54.98,0,0,0-3.84,8.27c-.96,2.51-1.8,5.05-2.49,7.27q.345-.39.69-.81c.41-.5.85-1.09,1.32-1.75,1.05-1.5,2.23-3.38,3.53-5.43,1.94-3.04,4.12-6.48,6.48-9.6,2.92-3.87,6.11-7.27,9.42-8.89,0,0-10.28,12.21-9.61,26.26a42.522,42.522,0,0,1,11.47-9.82,76.208,76.208,0,0,0-3.75,6.84A74.622,74.622,0,0,0,721.94,1903.13Zm-127.78,20.35c-1.11,2.28-2.77,2.1-3.24.5s-3.11-1.48-2.74-4.38a2.679,2.679,0,0,1,.95-1.83.864.864,0,0,1,.1-.07,2.43,2.43,0,0,1,3.38.63C593.59,1919.7,594.89,1921.98,594.16,1923.48Zm105.72.98c-.33,1.18-.94,2.74-1.92,2.93a2.652,2.652,0,0,1-2.66-2.33v-.01l.18-1.76v-.01a5.038,5.038,0,0,1,.77-1.34c1.22-1.57,2.2-1.27,2.88-.58A3.188,3.188,0,0,1,699.88,1924.46Zm4.14-5.7a1.765,1.765,0,0,1-2.57-.16,2.694,2.694,0,0,1-.65-1.62c-.12-1.2.39-1.53.98-1.55h.11a2.051,2.051,0,0,1,1.72,1.11C703.98,1917.24,704.39,1918.24,704.02,1918.76Z" fill="#010202"/>
    </g>
    <g id="Group_85" data-name="Group 85">
      <g id="Group_91" data-name="Group 91">
        <path id="Path_1988" data-name="Path 1988" d="M646.89,1820.93v.03l-.1,2.23-.23,4.94-.2,4.54-.06,1.25v.01l-.21,4.63-.04.91-1.06,23.15-.33,7.35-.24,5.21v.01l-.69,15.2-.2,4.4-.5,10.88-.09,2.13v.01l-.41,8.86-.82,18.06-.87,19.24-.11,2.35-.12,2.63c-.18.03-.36-.07-.52-.34a3.95,3.95,0,0,1-.3-1.89,20.94,20.94,0,0,1,.27-2.69c.13-.82.26-1.46.29-1.6l-.62,1.62-1.21,3.19-.73,1.94-.32.83-.08.22-.05-.21-.53-2.13-.23-.9-1.38,1.45-1.32,1.38a7.867,7.867,0,0,1-.39-.84,8.494,8.494,0,0,1-.38-4.45,13.42,13.42,0,0,1,1.58-4.43,12.479,12.479,0,0,0-3.12,4.54,34.491,34.491,0,0,0-1.74,4.78c-1.63-1.51-.81-4.19-.68-4.55a10.346,10.346,0,0,1-3.91,4.96,21.539,21.539,0,0,0,1.24-9.17,30.405,30.405,0,0,0-.56-4.61,17.36,17.36,0,0,1-.2,4.94,17.094,17.094,0,0,1-2.66,6.56,15.906,15.906,0,0,1-1.16,1.54,1.922,1.922,0,0,1-.17-.88,24.843,24.843,0,0,0-1.1-7.35,72.269,72.269,0,0,0-5.3-12.84v-.01c-2.1-4.07-4.16-7.43-5.19-9.07l-.01-.01c-.38-.61-.62-.97-.67-1.05a20.733,20.733,0,0,1,.96,2.2.01.01,0,0,1,.01.01.037.037,0,0,1,.01.03,55.158,55.158,0,0,1,2.38,9.33v.03c.39,2.19.7,4.37.95,6.34a31.137,31.137,0,0,0-3.66-4.2,53.88,53.88,0,0,0-5.28-4.97h-.01l-16.68-58.01c.46-.04,6.86-3.06,15.04-7a39.948,39.948,0,0,1-2.57-11.46,40.474,40.474,0,0,1,2.4-17.83c4.17-10.62,13.32-17.76,26.16-19.91l-.01-.21,16.02-1.17c.04,0,.07-.01.11-.01s.05-.01.08-.01Z" fill="#7393d3"/>
        <path id="Path_1989" data-name="Path 1989" d="M637.79,1959.18l-.32.83-.08.22-.05-.21-.53-2.13-.23-.9-1.38,1.45-1.32,1.38a7.867,7.867,0,0,1-.39-.84,8.494,8.494,0,0,1-.38-4.45,13.42,13.42,0,0,1,1.58-4.43,12.479,12.479,0,0,0-3.12,4.54,34.491,34.491,0,0,0-1.74,4.78c-1.63-1.51-.81-4.19-.68-4.55a10.346,10.346,0,0,1-3.91,4.96,21.539,21.539,0,0,0,1.24-9.17,30.405,30.405,0,0,0-.56-4.61,17.36,17.36,0,0,1-.2,4.94,17.094,17.094,0,0,1-2.66,6.56,15.906,15.906,0,0,1-1.16,1.54,1.922,1.922,0,0,1-.17-.88,24.843,24.843,0,0,0-1.1-7.35,72.269,72.269,0,0,0-5.3-12.84v-.01c-2.1-4.07-4.16-7.43-5.19-9.07l-.01-.01c-.38-.61-.62-.97-.67-1.05a20.733,20.733,0,0,1,.96,2.2.01.01,0,0,1,.01.01.037.037,0,0,1,.01.03,55.158,55.158,0,0,1,2.38,9.33v.03c.39,2.19.7,4.37.95,6.34a31.137,31.137,0,0,0-3.66-4.2,53.88,53.88,0,0,0-5.28-4.97h-.01l-16.68-58.01c.46-.04,6.86-3.06,15.04-7l9.96,3.21,1.37,4.69,1.64,5.62,17.44,59.65,2.77,9.49,1,3.39Z" fill="#607bb0"/>
        <path id="Path_1990" data-name="Path 1990" d="M610.44,1930.12l2.38,9.33A55.158,55.158,0,0,0,610.44,1930.12Zm91.34-14.69,4.34-41.47h-.01a.281.281,0,0,1-.08-.01H706c-.03-.01-.06-.01-.09-.02a.392.392,0,0,1-.14-.03.506.506,0,0,1-.09-.02.355.355,0,0,1-.1-.02l-.12-.03c-.51-.13-1.29-.35-2.3-.64l-.3-.09h-.02c-.02-.01-.05-.02-.07-.03-.13-.04-.26-.07-.39-.11a.037.037,0,0,0-.03-.01,2.225,2.225,0,0,1-.24-.08c-.08-.02-.16-.05-.24-.07h-.02c-.21-.06-.44-.13-.67-.2-.14-.04-.27-.08-.41-.12a3.376,3.376,0,0,0-.34-.1c-.84-.26-1.76-.54-2.74-.84-.26-.08-.53-.17-.8-.24q-.705-.225-1.44-.45h-.01q-1.11-.36-2.31-.72c-.26-.09-.54-.17-.81-.25-1.08-.34-2.19-.69-3.34-1.05.06-.29.12-.59.18-.88a.507.507,0,0,1,.02-.13c.03-.13.05-.26.08-.4.01-.08.03-.16.04-.25.06-.33.11-.67.16-1.01.01-.05.01-.1.02-.15.17-1.2.28-2.4.34-3.58.01-.29.02-.59.03-.88.03-1.24.01-2.47-.07-3.69-.01-.19-.03-.39-.05-.58-.05-.7-.13-1.4-.22-2.1-.08-.59-.17-1.18-.28-1.76-.06-.34-.12-.67-.19-1a.235.235,0,0,0-.02-.08c-.07-.29-.13-.59-.2-.89s-.15-.59-.22-.89-.16-.59-.24-.88c-.17-.59-.35-1.18-.54-1.76s-.41-1.16-.63-1.73a38.917,38.917,0,0,0-1.94-4.26c-.18-.33-.36-.66-.54-.98-.07-.13-.14-.25-.21-.37-.22-.38-.45-.76-.68-1.13a.993.993,0,0,0-.11-.17c-.27-.43-.55-.86-.84-1.27,0-.01,0-.01-.01-.02-.27-.4-.55-.78-.83-1.16h-.01c-.6-.82-1.24-1.62-1.91-2.39-.33-.37-.66-.74-1-1.1a.653.653,0,0,0-.08-.09c-.32-.33-.64-.66-.96-.98-.38-.38-.77-.75-1.16-1.1-.37-.34-.75-.67-1.13-.99a40.077,40.077,0,0,0-20.09-8.97c-.8-.11-1.59-.2-2.4-.27h-.02c-.49-.04-.99-.07-1.48-.1-.01,0-.01-.01-.03-.01h-.01c-.01,0-.02.01-.03.01s0-.01-.01,0a38.866,38.866,0,0,0-4.82.11v.01c-.1,0-.21.01-.32.02a40.027,40.027,0,0,0-10.73,2.52,38.847,38.847,0,0,0-6.11,2.98c-.27.17-.54.33-.8.5-.18.11-.37.23-.55.35-.07.04-.14.09-.21.14a.351.351,0,0,0-.08.05,3.63,3.63,0,0,0-.35.24.33.33,0,0,0-.08.06l-.6.42c-.01,0-.02,0-.02.01a.21.21,0,0,0-.06.04,1.2,1.2,0,0,0-.14.1,1.125,1.125,0,0,0-.13.1.208.208,0,0,0-.06.04q-.015,0-.03.03a1.874,1.874,0,0,0-.24.18c-.01,0-.02.01-.03.02s-.02.01-.03.03c-.29.21-.58.43-.86.66a1.851,1.851,0,0,0-.22.17,4.947,4.947,0,0,0-.44.36c-.11.09-.23.19-.34.29l-.18.15a.948.948,0,0,0-.19.16c-.23.21-.46.41-.69.62l-.06.06c-.12.1-.24.21-.35.32-.25.24-.49.47-.73.71-.01.01-.01.01-.02.01l-.32.32c-.34.34-.67.69-.99,1.04-.21.24-.43.48-.65.72s-.42.5-.64.74c-.23.28-.46.55-.67.84-.21.27-.41.53-.61.8s-.4.55-.6.82a.072.072,0,0,0-.04.06,40.09,40.09,0,0,0-6.41,14.82c-.01.07-.03.13-.04.2-.03.14-.06.29-.09.43-.09.48-.18.95-.25,1.43q-.09.54-.15,1.08v.03a39.406,39.406,0,0,0,2.37,19.22h-.01c-8.18,3.94-14.56,6.96-15.02,6.99l10.47,41.05,1.54,6.04.01.01c1.03,1.64,3.09,5,5.19,9.07v.01a72.269,72.269,0,0,1,5.3,12.84,24.843,24.843,0,0,1,1.1,7.35,1.922,1.922,0,0,0,.17.88,15.906,15.906,0,0,0,1.16-1.54,17.094,17.094,0,0,0,2.66-6.56,17.36,17.36,0,0,0,.2-4.94,30.405,30.405,0,0,1,.56,4.61,21.539,21.539,0,0,1-1.24,9.17,10.346,10.346,0,0,0,3.91-4.96c-.13.36-.95,3.04.68,4.55a34.491,34.491,0,0,1,1.74-4.78,12.479,12.479,0,0,1,3.12-4.54,13.42,13.42,0,0,0-1.58,4.43,8.494,8.494,0,0,0,.38,4.45,7.867,7.867,0,0,0,.39.84l1.32-1.38,1.38-1.45.23.9.53,2.13.05.21.08-.22.32-.83.73-1.94,1.21-3.19.62-1.62c-.03.14-.16.78-.29,1.6a20.94,20.94,0,0,0-.27,2.69,3.95,3.95,0,0,0,.3,1.89c.16.27.34.37.52.34.73-.06,1.51-1.96,1.51-1.96a22.72,22.72,0,0,0,.85,2.62,9.53,9.53,0,0,0,.42.96,3.073,3.073,0,0,0,.75,1.01c.23.17.62.01,1.07-.37a9.345,9.345,0,0,0,1.62-1.88c1.24-1.82,2.2-4.17,1.23-4.91,0,0,1.75,1.03,1.57,4.71a14.2,14.2,0,0,1-.22,1.77,2.95,2.95,0,0,0,2.16-1.62,4.123,4.123,0,0,1,.58.87,4.378,4.378,0,0,1,.5,2.51,19.2,19.2,0,0,1,.92-3.23c.08-.21.17-.41.26-.61a5.338,5.338,0,0,1,1.52-2.1,12.4,12.4,0,0,0-.4,1.83v.01c-.11.06-.21.13-.32.2l.3-.02c-.15,1.36-.04,3,1.23,3.52a14.053,14.053,0,0,0,3.23-3.85,6.385,6.385,0,0,0,.71-2,4.212,4.212,0,0,0-.51-2.98.01.01,0,0,1,.01-.01,8.24,8.24,0,0,1,1.64,2.96,8.047,8.047,0,0,1,.37,1.87,8.423,8.423,0,0,1-.45,3.47,7.963,7.963,0,0,0,1.99-.39,4.324,4.324,0,0,0,1.54-.85,2.509,2.509,0,0,0,.79-1.2,7.333,7.333,0,0,1,.59.79,2.625,2.625,0,0,1,.49,1.24,10.688,10.688,0,0,0,.71-1.55,9.059,9.059,0,0,0,.5-1.96,4.562,4.562,0,0,0-.33-2.58,4.323,4.323,0,0,0-.34-.53s.19.16.48.43a14.526,14.526,0,0,1,2.17,2.54,6.308,6.308,0,0,1,.57,1.13l.03.09a.818.818,0,0,0-.01-.1c-.03-.18-.07-.59-.11-1.16a21.941,21.941,0,0,1,.34-5.36c.03-.16.07-.31.11-.46a13,13,0,0,1,1.29-3.52,9.443,9.443,0,0,1,.94-1.42,30.413,30.413,0,0,0-.4,4.8,9.9,9.9,0,0,0,.98,4.88,3.434,3.434,0,0,0,.64.72,12.357,12.357,0,0,1-.16-1.27,11.622,11.622,0,0,1,.32-4.46,5.075,5.075,0,0,1,.38-.89s.08.34.25.85a11.248,11.248,0,0,0,1.01,2.19,6.428,6.428,0,0,0,2.06,2.16,12.752,12.752,0,0,1,.12-3.7v-.02c.05-.3.1-.59.17-.88,1.15-5.18,5.23-9.61,9.16-12.81.23-.19.47-.38.7-.56.34-.27.68-.53,1.02-.77.7-.53,1.38-1.01,2.02-1.44,1.29-.86,2.42-1.53,3.22-1.99.72-.41,1.18-.65,1.26-.68a19.8,19.8,0,0,0-1.41,2.08,54.98,54.98,0,0,0-3.84,8.27c-.96,2.51-1.8,5.05-2.49,7.27q.345-.39.69-.81c.41-.5.85-1.09,1.32-1.75,1.05-1.5,2.23-3.38,3.53-5.43,1.94-3.04,4.12-6.48,6.48-9.6l1.51-14.42a2.694,2.694,0,0,1-.65-1.62C700.68,1915.78,701.19,1915.45,701.78,1915.43Zm-1.9,9.03c-.33,1.18-.94,2.74-1.92,2.93a2.652,2.652,0,0,1-2.66-2.33v-.01l.18-1.76v-.01a5.038,5.038,0,0,1,.77-1.34c1.22-1.57,2.2-1.27,2.88-.58A3.188,3.188,0,0,1,699.88,1924.46Z" fill="#47629a"/>
        <path id="Path_1991" data-name="Path 1991" d="M610.44,1930.12l2.38,9.33A55.158,55.158,0,0,0,610.44,1930.12Zm4.17.68a15.556,15.556,0,0,0-5.76-7.72l-.26-.19,1.54,6.04.01.01c1.03,1.64,3.09,5,5.19,9.07A26.891,26.891,0,0,0,614.61,1930.8Zm6.83,20.42a4.168,4.168,0,0,1-.81-.36,24.843,24.843,0,0,1,1.1,7.35,1.922,1.922,0,0,0,.17.88,15.906,15.906,0,0,0,1.16-1.54,17.094,17.094,0,0,0,2.66-6.56A6.1,6.1,0,0,1,621.44,1951.22Zm80.34-35.79,4.34-41.47h-.01a.281.281,0,0,1-.08-.01H706c-.03-.01-.06-.01-.09-.02a.392.392,0,0,1-.14-.03.506.506,0,0,1-.09-.02.355.355,0,0,1-.1-.02l-.12-.03c-.51-.13-1.29-.35-2.3-.64l-.3-.09h-.02c-.15-.04-.3-.09-.46-.14a.037.037,0,0,0-.03-.01,2.225,2.225,0,0,1-.24-.08,1.594,1.594,0,0,1-.21-.05c-.01,0-.02-.01-.03-.02h-.02c-.21-.06-.44-.13-.67-.2-.14-.04-.27-.08-.41-.12a3.376,3.376,0,0,0-.34-.1c-.84-.26-1.76-.54-2.74-.84-.26-.08-.53-.17-.8-.24q-.705-.225-1.44-.45h-.01q-1.125-.345-2.31-.72c-.26-.09-.54-.17-.81-.25-1.08-.33-2.19-.68-3.34-1.04v-.01c.06-.29.12-.59.18-.88a.507.507,0,0,1,.02-.13c.03-.13.05-.26.08-.4.01-.08.03-.16.04-.25.06-.33.11-.67.16-1.01.01-.05.01-.1.02-.15.04-.25.08-.5.11-.75a39.7,39.7,0,0,0-34.6-44.22,38.7,38.7,0,0,0-9.62,0c-.03,0-.05.01-.08.01s-.07.01-.11.01a39.658,39.658,0,0,0-23.03,11.27c-.47.47-.93.96-1.35,1.46-.18.19-.35.39-.52.59-.21.25-.42.5-.64.74-.23.28-.46.55-.67.84-.21.27-.41.53-.61.8s-.4.55-.6.82a.072.072,0,0,0-.04.06c-.1.12-.19.25-.28.38s-.19.27-.28.41c-.06.08-.11.17-.16.25-.34.51-.67,1.04-.99,1.57-.29.49-.57.99-.84,1.49-.02.04-.05.09-.07.14-.16.31-.32.62-.48.94-.23.44-.44.88-.64,1.33-.25.53-.48,1.08-.7,1.63-.17.43-.33.86-.48,1.3-.13.35-.25.71-.37,1.07s-.24.74-.35,1.11c-.17.58-.33,1.18-.48,1.78-.11.46-.2.94-.29,1.42-.01.07-.03.13-.04.2-.03.14-.06.29-.09.43-.04.23-.1.45-.14.68-.04.25-.08.5-.11.75q-.09.54-.15,1.08c0,.01-.01.01-.01.02v.02a.01.01,0,0,1,.01-.01,29.29,29.29,0,0,1,2.98-3.5,13.032,13.032,0,0,1,1.1-1.01,11.387,11.387,0,0,1,1.2-.86c.49-.31,1.45-.94,2.05-.84a2.99,2.99,0,0,1,1.5,1.14c.02.02.04.05.06.07a12.567,12.567,0,0,0,1.01,1.06c.66.61,1.53-.23,2.1-.66.76-.56,1.56-1.48,2.54-1.62.27-.04.55-.09.82-.14s.56-.11.83-.17c.29-.05.59-.11.88-.17.76-.16,1.53-.31,2.3-.4a18.1,18.1,0,0,1,7.97.71c.18.05.37.12.55.19a5.775,5.775,0,0,1,.68.29.467.467,0,0,1,.1.05,5.7,5.7,0,0,1,.64.35,3.174,3.174,0,0,1,.36.23q.36.24.69.51c.12.1.24.2.35.31a.455.455,0,0,1,.07.07c.11.09.21.2.31.3q.225.24.42.48a6.113,6.113,0,0,1,.39.5,7.269,7.269,0,0,1,.59.96,9.034,9.034,0,0,1,.8,2.16,10.636,10.636,0,0,1,.23,2.26c0,.2-.01.41-.02.61a3.213,3.213,0,0,1-.03.43,11.207,11.207,0,0,1-.28,1.8c-.03.1-.05.2-.08.3a9.786,9.786,0,0,1-.33,1.14c-.07.2-.14.39-.21.58,0,.01,0,.01-.01.02a8.339,8.339,0,0,1-.34.82c-.08.18-.17.37-.27.55l-.12.24q-.165.33-.36.66a9.651,9.651,0,0,1-.55.86,7.842,7.842,0,0,1-.47.66,9.206,9.206,0,0,1-.61.76c-.16.19-.32.37-.49.55a.61.61,0,0,0-.08.08c-.2.21-.41.41-.62.6a11.833,11.833,0,0,1-1.85,1.42,2.264,2.264,0,0,1-.26.16,3.375,3.375,0,0,1-.32.19,7.459,7.459,0,0,1-.8.4,8.01,8.01,0,0,1-4.01.66c-.42-.03-1.69-.56-1.96-.3-.23.21-.45.42-.67.64-.17.17-.34.33-.5.5-.33.34-.64.68-.94,1.04-.15.18-.3.37-.45.55-.11.16-.22.31-.32.47s-.2.32-.29.48a.75.75,0,0,0-.07.12c-.07.13-.14.26-.2.39-.09.18-.17.36-.25.54a6.038,6.038,0,0,0-.26.71,4.957,4.957,0,0,0-.16.55l-.03.12c-.02.08-.03.15-.05.22a5.049,5.049,0,0,0-.11.56c-.04.24-.07.49-.09.74-.01.12-.02.25-.02.37-.01.26-.01.53,0,.79a13.017,13.017,0,0,0,.04,2.25c-.02.01-.01.02,0,.03a.044.044,0,0,0,0,.05,3.727,3.727,0,0,0,.08.57,11.17,11.17,0,0,0,.26,1.28q.075.315.18.63a6.448,6.448,0,0,0,.21.62c.08.23.17.46.27.68s.19.42.29.63q.225.45.48.87c.21.28.42.57.61.87.13.19.25.38.37.58.14.2.27.4.39.61a11.162,11.162,0,0,1,1.13,2.2v.01a6.61,6.61,0,0,1,.43,1.99,5.529,5.529,0,0,1-.13,1.41c-.37,1.89-1.49,3.64-1.39,5.62.15,2.83,2.41,4.64,4.62,6,.14.09.29.18.43.27a24.154,24.154,0,0,1,2.66,1.78.01.01,0,0,1,.01.01,9.226,9.226,0,0,1,1.72,1.8c1.41,1.98,2.53,4.13,4.05,6.03l.01.01a5.533,5.533,0,0,0,4.77,2,11.5,11.5,0,0,0,1.15-.08c4.28-.5,6.63,4.5,6.49,8.12-.13,3.34-2.15,7.1-5.54,8.04a5.465,5.465,0,0,1-2.38.02,5.56,5.56,0,0,1-2.21-1.01,8.434,8.434,0,0,1-1.28-1.11c-.09-.1.08-.22-.15.04l-.28.31c-.46.53-.9,1.08-1.33,1.63-.02.03-.05.06-.07.09-2.25,2.81-4.38,5.71-6.73,8.44-.44.56-.91,1.11-1.39,1.64a31.69,31.69,0,0,1-6.42,5.47.606.606,0,0,1-.1.07c-.19.11-.39.21-.59.31a21.539,21.539,0,0,1-1.24,9.17,10.346,10.346,0,0,0,3.91-4.96c-.13.36-.95,3.04.68,4.55a34.491,34.491,0,0,1,1.74-4.78,12.479,12.479,0,0,1,3.12-4.54,13.42,13.42,0,0,0-1.58,4.43,8.494,8.494,0,0,0,.38,4.45,7.867,7.867,0,0,0,.39.84l1.32-1.38,1.38-1.45.23.9.53,2.13.05.21.08-.22.32-.83.73-1.94,1.21-3.19.62-1.62c-.03.14-.16.78-.29,1.6a20.94,20.94,0,0,0-.27,2.69,3.95,3.95,0,0,0,.3,1.89c.16.27.34.37.52.34.73-.06,1.51-1.96,1.51-1.96a22.72,22.72,0,0,0,.85,2.62,9.53,9.53,0,0,0,.42.96,3.073,3.073,0,0,0,.75,1.01c.23.17.62.01,1.07-.37a9.345,9.345,0,0,0,1.62-1.88c1.24-1.82,2.2-4.17,1.23-4.91,0,0,1.75,1.03,1.57,4.71a14.2,14.2,0,0,1-.22,1.77,2.95,2.95,0,0,0,2.16-1.62,4.123,4.123,0,0,1,.58.87,4.378,4.378,0,0,1,.5,2.51,19.2,19.2,0,0,1,.92-3.23c.08-.21.17-.41.26-.61a5.338,5.338,0,0,1,1.52-2.1,12.4,12.4,0,0,0-.4,1.83v.01c-.11.06-.21.13-.32.2l.3-.02c-.15,1.36-.04,3,1.23,3.52a14.053,14.053,0,0,0,3.23-3.85,6.385,6.385,0,0,0,.71-2,4.212,4.212,0,0,0-.51-2.98.01.01,0,0,1,.01-.01,8.24,8.24,0,0,1,1.64,2.96,8.047,8.047,0,0,1,.37,1.87,8.423,8.423,0,0,1-.45,3.47,7.963,7.963,0,0,0,1.99-.39,4.324,4.324,0,0,0,1.54-.85,2.509,2.509,0,0,0,.79-1.2,7.333,7.333,0,0,1,.59.79,2.625,2.625,0,0,1,.49,1.24,10.688,10.688,0,0,0,.71-1.55,9.059,9.059,0,0,0,.5-1.96,4.562,4.562,0,0,0-.33-2.58,4.323,4.323,0,0,0-.34-.53s.19.16.48.43a14.526,14.526,0,0,1,2.17,2.54,6.308,6.308,0,0,1,.57,1.13l.03.09a.818.818,0,0,0-.01-.1c-.03-.18-.07-.59-.11-1.16a21.941,21.941,0,0,1,.34-5.36c.03-.16.07-.31.11-.46a13,13,0,0,1,1.29-3.52,9.443,9.443,0,0,1,.94-1.42,30.413,30.413,0,0,0-.4,4.8,9.9,9.9,0,0,0,.98,4.88,3.434,3.434,0,0,0,.64.72,12.357,12.357,0,0,1-.16-1.27,11.622,11.622,0,0,1,.32-4.46,5.075,5.075,0,0,1,.38-.89s.08.34.25.85a11.248,11.248,0,0,0,1.01,2.19,6.428,6.428,0,0,0,2.06,2.16,12.752,12.752,0,0,1,.12-3.7v-.02c.05-.3.1-.59.17-.88,1.15-5.18,5.23-9.61,9.16-12.81.23-.19.47-.38.7-.56.34-.27.68-.53,1.02-.77.7-.53,1.38-1.01,2.02-1.44,1.29-.86,2.42-1.53,3.22-1.99.72-.41,1.18-.65,1.26-.68a19.8,19.8,0,0,0-1.41,2.08,54.98,54.98,0,0,0-3.84,8.27c-.96,2.51-1.8,5.05-2.49,7.27q.345-.39.69-.81c.41-.5.85-1.09,1.32-1.75,1.05-1.5,2.23-3.38,3.53-5.43,1.94-3.04,4.12-6.48,6.48-9.6l1.51-14.42a2.694,2.694,0,0,1-.65-1.62C700.68,1915.78,701.19,1915.45,701.78,1915.43Zm-1.9,9.03c-.33,1.18-.94,2.74-1.92,2.93a2.652,2.652,0,0,1-2.66-2.33v-.01l.18-1.76v-.01a5.038,5.038,0,0,1,.77-1.34c1.22-1.57,2.2-1.27,2.88-.58A3.188,3.188,0,0,1,699.88,1924.46Z" fill="#3f5993"/>
        <path id="Path_758" data-name="Path 758" d="M653.349,1820.932a17.147,17.147,0,0,0-7.69,2.99c-1.369.989-2.848,2.377-3.065,4.156-.5,4.117,4.552,6.718,7.828,7.6,5.04,1.354,11.715,1.429,14.735,6.428,3.205,5.307.167,11.594-.7,17.148-1.986-.348-3.9-.932-5.865-1.38a6.271,6.271,0,0,0-3.781-.018A7.36,7.36,0,0,0,651.6,1861a21.894,21.894,0,0,0-2.745,5.952c-.393,1.542-.479,3.154-.913,4.683a5.129,5.129,0,0,1-3.3,3.477,19.813,19.813,0,0,1-7.285,1.2c-1.543-.01-3.3-.252-4.784.272-3.479,1.227-3.27,6.46-2.8,9.38.273,1.69.836,3.531.5,5.25a5.22,5.22,0,0,1-.14.546,21.434,21.434,0,0,0-2.5-4.269,12.94,12.94,0,0,1-1.815-7.606,9.621,9.621,0,0,1,1.85-6.059,23.4,23.4,0,0,1,2.566-2.738c.269-.252,1.544.271,1.959.308a8.048,8.048,0,0,0,4.007-.664c5.3-2.379,9.1-9.327,7.87-15.085a8.674,8.674,0,0,0-5.948-6.409,18.057,18.057,0,0,0-7.97-.708c-1.63.2-3.21.635-4.828.877-.981.147-1.784,1.065-2.537,1.625-.575.43-1.439,1.271-2.108.662a15.178,15.178,0,0,1-1.067-1.13,2.958,2.958,0,0,0-1.5-1.139c-.6-.107-1.563.528-2.045.834a13.477,13.477,0,0,0-2.314,1.872,29.871,29.871,0,0,0-2.988,3.505,39.729,39.729,0,0,1,42.617-34.705Z" fill="#364e88"/>
        <path id="Path_759" data-name="Path 759" d="M629.691,1885.434a10.537,10.537,0,0,1-.945-4.246,8.02,8.02,0,0,1,4.063-6.791,26.061,26.061,0,0,1,6.768-2.162,11.123,11.123,0,0,0,5.065-2.24c1.176-1.093,2.743-3.413,2.213-5.1-.373-1.188-.8-2.5.274-3.45a14.9,14.9,0,0,0,1.493-1.859,49.278,49.278,0,0,1,4.432-4.683.23.23,0,0,0-.023-.321c-3.28-3.042,2.4-7.516,5.058-8.507a.233.233,0,0,0,.135-.3.216.216,0,0,0-.023-.043,4.51,4.51,0,0,0-1.162-1.4,16.935,16.935,0,0,0-5.635-2.466c-2.178-.677-4.893-1.322-6.194-3.389a12.262,12.262,0,0,0-2.1-2.988,14.614,14.614,0,0,0-3.709-2.191,12.4,12.4,0,0,0-4.206-1.16,22.7,22.7,0,0,0-3.806.331,11.07,11.07,0,0,1-4.792-.817,8.083,8.083,0,0,0-1.931-.617,2.819,2.819,0,0,0-1.329.227,39.5,39.5,0,0,1,23.944-10.352,39.913,39.913,0,0,1,6.109.021h-.038a17.167,17.167,0,0,0-7.691,2.99c-1.369.989-2.848,2.377-3.065,4.156-.5,4.117,4.552,6.718,7.828,7.6,5.04,1.354,11.715,1.429,14.735,6.428,3.2,5.307.167,11.594-.7,17.149-1.986-.348-3.9-.932-5.865-1.381a6.271,6.271,0,0,0-3.781-.018A7.36,7.36,0,0,0,651.6,1861a21.9,21.9,0,0,0-2.745,5.952c-.393,1.542-.479,3.154-.913,4.683a5.129,5.129,0,0,1-3.3,3.477,19.811,19.811,0,0,1-7.285,1.2c-1.543-.01-3.3-.252-4.784.272C629.286,1877.735,629.285,1882.45,629.691,1885.434Z" fill="#2e457e"/>
        <path id="Path_1992" data-name="Path 1992" d="M701.78,1915.43l4.34-41.47h-.01a.281.281,0,0,1-.08-.01H706c-.03-.01-.06-.01-.09-.02a.392.392,0,0,1-.14-.03.506.506,0,0,1-.09-.02.355.355,0,0,1-.1-.02l-.12-.03c-.51-.13-1.29-.35-2.3-.64l-.3-.09h-.02c-.02-.01-.05-.02-.07-.03-.13-.04-.26-.07-.39-.11a.037.037,0,0,0-.03-.01,2.225,2.225,0,0,1-.24-.08c-.08-.02-.16-.05-.24-.07h-.02c-.21-.06-.44-.13-.67-.2-.14-.04-.27-.08-.41-.12a3.376,3.376,0,0,0-.34-.1c-.84-.26-1.76-.54-2.74-.84-.26-.08-.53-.17-.8-.24q-.705-.225-1.44-.45h-.01q-1.11-.36-2.31-.72c-.26-.09-.54-.17-.81-.25-1.08-.34-2.19-.69-3.34-1.05.06-.29.12-.59.18-.88a.507.507,0,0,1,.02-.13c.03-.13.05-.26.08-.4.01-.08.03-.16.04-.25.06-.33.11-.67.16-1.01.01-.05.01-.1.02-.15.17-1.2.28-2.4.34-3.58.01-.29.02-.59.03-.88.03-1.24.01-2.47-.07-3.69-.01-.19-.03-.39-.05-.58-.05-.7-.13-1.4-.22-2.1-.08-.59-.17-1.18-.28-1.76-.06-.34-.12-.67-.19-1a.235.235,0,0,0-.02-.08c-.07-.29-.13-.59-.2-.89s-.15-.59-.22-.89-.16-.59-.24-.88c-.17-.59-.35-1.18-.54-1.76s-.41-1.16-.63-1.73a38.917,38.917,0,0,0-1.94-4.26c-.18-.33-.36-.66-.54-.98-.07-.13-.14-.25-.21-.37-.22-.38-.45-.76-.68-1.13a.993.993,0,0,0-.11-.17c-.27-.43-.55-.86-.84-1.27,0-.01,0-.01-.01-.02-.27-.4-.55-.78-.83-1.16h-.01c-.6-.82-1.24-1.62-1.91-2.39-.33-.37-.66-.74-1-1.1a.653.653,0,0,0-.08-.09c-.32-.33-.64-.66-.96-.98-.38-.38-.77-.75-1.16-1.1-.37-.34-.75-.67-1.13-.99a39.447,39.447,0,0,0-20.15-9.01c.02.01.04.03.06.04,2.89,2.06,5.77,4.11,8.68,6.12s6.23,3.61,9.17,5.66a.031.031,0,0,1,.02.01,21.908,21.908,0,0,1,3.7,3.17c3.1,3.37,3.15,8.16,3.63,12.58.09.86.19,1.7.34,2.51a14.493,14.493,0,0,1,.47,3.53,13.943,13.943,0,0,1-.1,2.04,8.084,8.084,0,0,1-.63,1.56,7.741,7.741,0,0,1-1.25,1.71c-.05.06-.1.11-.15.16-.7.81-1.41,1.61-2.11,2.42a17.043,17.043,0,0,0-2.7,3.56,24.175,24.175,0,0,1-1.08,2.63,5.124,5.124,0,0,1-2.52,1.9c-4.67,1.96-9.32-2.18-13.95-2.62h-.02a6.786,6.786,0,0,0-.78-.04,6.492,6.492,0,0,0-1.85.29,3.509,3.509,0,0,0-2.68,2.81c-.27,1.89.2,3.91.15,5.82-.12,5.08-3.43,9.51-5.35,14.05-.96,2.27-2.07,5.32-1.27,7.81a15.043,15.043,0,0,0,3.08,4.64c2.45,2.79,5.02,5.48,7.7,8.04.75.73,1.51,1.45,2.27,2.15.35.35.71.7,1.08,1.04l.01.01a39.478,39.478,0,0,0,4,3.31c1.78,1.23,3.68,2.27,5.4,3.59a10.686,10.686,0,0,1,3.43,4.38c.98,2.37,1.01,5.14,1.01,7.67a11.77,11.77,0,0,1-1.77,6.48,11.115,11.115,0,0,1-2.15,2.67c-1.01.82-2.24,1.26-3.29,2-1.21.86-1.8,2.45-2.37,3.76a8.789,8.789,0,0,1-2.18,3.26c-.23.21-.47.41-.71.62a10.684,10.684,0,0,1-1.32.91,8.24,8.24,0,0,1,1.64,2.96,8.047,8.047,0,0,1,.37,1.87,8.423,8.423,0,0,1-.45,3.47,7.963,7.963,0,0,0,1.99-.39,4.324,4.324,0,0,0,1.54-.85,2.509,2.509,0,0,0,.79-1.2,7.333,7.333,0,0,1,.59.79,2.625,2.625,0,0,1,.49,1.24,10.688,10.688,0,0,0,.71-1.55,9.059,9.059,0,0,0,.5-1.96,4.562,4.562,0,0,0-.33-2.58,4.323,4.323,0,0,0-.34-.53s.19.16.48.43a14.526,14.526,0,0,1,2.17,2.54,6.308,6.308,0,0,1,.57,1.13l.03.09a.818.818,0,0,0-.01-.1c-.03-.18-.07-.59-.11-1.16a21.941,21.941,0,0,1,.34-5.36c.03-.16.07-.31.11-.46a13,13,0,0,1,1.29-3.52,9.443,9.443,0,0,1,.94-1.42,30.413,30.413,0,0,0-.4,4.8,9.9,9.9,0,0,0,.98,4.88,3.434,3.434,0,0,0,.64.72,12.357,12.357,0,0,1-.16-1.27,11.622,11.622,0,0,1,.32-4.46,5.075,5.075,0,0,1,.38-.89s.08.34.25.85a11.248,11.248,0,0,0,1.01,2.19,6.428,6.428,0,0,0,2.06,2.16,12.752,12.752,0,0,1,.12-3.7v-.02c.05-.3.1-.59.17-.88,1.15-5.18,5.23-9.61,9.16-12.81.23-.19.47-.38.7-.56.34-.27.68-.53,1.02-.77.7-.53,1.38-1.01,2.02-1.44,1.29-.86,2.42-1.53,3.22-1.99.72-.41,1.18-.65,1.26-.68a19.8,19.8,0,0,0-1.41,2.08,54.98,54.98,0,0,0-3.84,8.27c-.96,2.51-1.8,5.05-2.49,7.27q.345-.39.69-.81c.41-.5.85-1.09,1.32-1.75,1.05-1.5,2.23-3.38,3.53-5.43,1.94-3.04,4.12-6.48,6.48-9.6l1.51-14.42a2.694,2.694,0,0,1-.65-1.62C700.68,1915.78,701.19,1915.45,701.78,1915.43Zm-1.9,9.03c-.33,1.18-.94,2.74-1.92,2.93a2.652,2.652,0,0,1-2.66-2.33v-.01l.18-1.76v-.01a5.038,5.038,0,0,1,.77-1.34c1.22-1.57,2.2-1.27,2.88-.58A3.188,3.188,0,0,1,699.88,1924.46Zm-62.52,33.23c-.18.07-.37.13-.55.2l.53,2.13.05.21.08-.22.32-.83.73-1.94C638.13,1957.4,637.75,1957.55,637.36,1957.69Zm-3.81,1.27c-.02.01-.04.01-.06.02a7.867,7.867,0,0,0,.39.84l1.32-1.38C634.65,1958.62,634.1,1958.8,633.55,1958.96Zm26.04-5.53a5.367,5.367,0,0,1-3.08.77,26,26,0,0,1-2.89-.49,27.6,27.6,0,0,0-3.27-.43c-.39-.04-.79-.06-1.19-.08a6.849,6.849,0,0,0-2.7.36,6.644,6.644,0,0,0-1.53.71q-2.055,1.11-4.2,2.05c-.31.14-.62.27-.94.4a3.95,3.95,0,0,0,.3,1.89c.16.27.34.37.52.34.73-.06,1.51-1.96,1.51-1.96a22.72,22.72,0,0,0,.85,2.62,9.53,9.53,0,0,0,.42.96,3.073,3.073,0,0,0,.75,1.01c.23.17.62.01,1.07-.37a9.345,9.345,0,0,0,1.62-1.88c1.24-1.82,2.2-4.17,1.23-4.91,0,0,1.75,1.03,1.57,4.71a14.2,14.2,0,0,1-.22,1.77,2.95,2.95,0,0,0,2.16-1.62,4.123,4.123,0,0,1,.58.87,4.378,4.378,0,0,1,.5,2.51,19.2,19.2,0,0,1,.92-3.23c.08-.21.17-.41.26-.61a5.338,5.338,0,0,1,1.52-2.1,12.4,12.4,0,0,0-.4,1.83v.01c-.11.06-.21.13-.32.2l.3-.02c-.15,1.36-.04,3,1.23,3.52a14.053,14.053,0,0,0,3.23-3.85,6.385,6.385,0,0,0,.71-2A4.212,4.212,0,0,0,659.59,1953.43Z" fill="#364e88"/>
        <path id="Path_1993" data-name="Path 1993" d="M670.23,1957.62a21.941,21.941,0,0,1,.34-5.36,13.527,13.527,0,0,1-2.99,2.86,14.526,14.526,0,0,1,2.17,2.54,6.308,6.308,0,0,1,.57,1.13l.03.09a.818.818,0,0,0-.01-.1C670.31,1958.6,670.27,1958.19,670.23,1957.62Zm-2.79-2.4a13.685,13.685,0,0,1-1.7.99,4.435,4.435,0,0,1-2.33.37,15.774,15.774,0,0,0-2.17-.2,8.047,8.047,0,0,1,.37,1.87,8.423,8.423,0,0,1-.45,3.47,7.963,7.963,0,0,0,1.99-.39,4.324,4.324,0,0,0,1.54-.85,2.509,2.509,0,0,0,.79-1.2,7.333,7.333,0,0,1,.59.79,2.625,2.625,0,0,1,.49,1.24,10.688,10.688,0,0,0,.71-1.55,9.059,9.059,0,0,0,.5-1.96A4.562,4.562,0,0,0,667.44,1955.22Zm-7.86,1.22a11.6,11.6,0,0,0-4.63,2.11v.01c-.11.06-.21.13-.32.2l.3-.02c-.15,1.36-.04,3,1.23,3.52a14.053,14.053,0,0,0,3.23-3.85,6.385,6.385,0,0,0,.71-2A4.69,4.69,0,0,0,659.58,1956.44Zm-6.01,2.99a12.642,12.642,0,0,1-1.42.72,4.378,4.378,0,0,1,.5,2.51A19.2,19.2,0,0,1,653.57,1959.43Zm-9.56,1.34a4.958,4.958,0,0,0-.62-.2,3.073,3.073,0,0,0,.75,1.01c.23.17.62.01,1.07-.37A5.561,5.561,0,0,1,644.01,1960.77Zm57.77-45.34,4.33-41.47a.281.281,0,0,1-.08-.01H706c-.03-.01-.06-.01-.09-.02a.392.392,0,0,1-.14-.03.506.506,0,0,1-.09-.02.355.355,0,0,1-.1-.02l-.12-.03c-.51-.13-1.29-.35-2.3-.64l-.3-.09h-.02c-.02-.01-.05-.02-.07-.03-.13-.04-.26-.07-.39-.11a.037.037,0,0,0-.03-.01,2.225,2.225,0,0,1-.24-.08c-.08-.02-.16-.05-.24-.07h-.02c-.21-.06-.44-.13-.67-.2-.14-.04-.27-.08-.41-.12a3.376,3.376,0,0,0-.34-.1c-.84-.26-1.76-.54-2.74-.84-.26-.08-.53-.17-.8-.24q-.705-.225-1.44-.45h-.01q-1.11-.36-2.31-.72c-.26-.09-.54-.17-.81-.25-1.08-.34-2.19-.69-3.34-1.05.06-.29.12-.59.18-.88a.507.507,0,0,1,.02-.13c.06-.34.12-.68.17-1.03a11.141,11.141,0,0,1-.98,1.99,10.8,10.8,0,0,1-1.89,2.25,16.292,16.292,0,0,1-3.1,2.21q-.885.495-1.8.9c-.49.23-.99.44-1.49.65-.95.38-1.9.73-2.82,1.06a17.387,17.387,0,0,1-7.97.7c-2.34-.25-5.81-.84-7.87.68-.53.4-.51,1.15-.5,1.75a15.541,15.541,0,0,1-.06,2.36,10.84,10.84,0,0,1-2.6,5.35c-.1.12-.19.24-.28.36a.547.547,0,0,0-.07.09,15.927,15.927,0,0,0-1.35,1.92,6.477,6.477,0,0,0-.96,4.13c.31,2.71,2.39,4.17,4.87,4.67,3.65.74,8.55.37,11.24,3.46a6.575,6.575,0,0,1,1.18,4.18v.14c.06,2.46-.34,4.95.45,7.34.65,2,2.21,3.47,3.57,5,1.54,1.72,3.15,3.85,3.5,6.18.47,3.03-1.13,6.21-1.82,9.1-.65,2.74.26,5.66-.3,8.44a6.892,6.892,0,0,1-1.43,2.89,4.9,4.9,0,0,1-2.71,1.33,5.112,5.112,0,0,0-1.51.57,2.111,2.111,0,0,0-.68,1.79,9.443,9.443,0,0,1,.94-1.42,30.413,30.413,0,0,0-.4,4.8,9.9,9.9,0,0,0,.98,4.88,3.434,3.434,0,0,0,.64.72,12.357,12.357,0,0,1-.16-1.27,11.622,11.622,0,0,1,.32-4.46,5.075,5.075,0,0,1,.38-.89s.08.34.25.85a11.248,11.248,0,0,0,1.01,2.19,6.428,6.428,0,0,0,2.06,2.16,12.752,12.752,0,0,1,.12-3.7v-.02c.05-.3.1-.59.17-.88,1.15-5.18,5.23-9.61,9.16-12.81.23-.19.47-.38.7-.56.34-.27.68-.53,1.02-.77.7-.53,1.38-1.01,2.02-1.44,1.29-.86,2.42-1.53,3.22-1.99.72-.41,1.18-.65,1.26-.68a19.8,19.8,0,0,0-1.41,2.08,54.98,54.98,0,0,0-3.84,8.27c-.96,2.51-1.8,5.05-2.49,7.27q.345-.39.69-.81c.41-.5.85-1.09,1.32-1.75,1.05-1.5,2.23-3.38,3.53-5.43,1.94-3.04,4.12-6.48,6.48-9.6l1.51-14.42a2.694,2.694,0,0,1-.65-1.62C700.68,1915.78,701.19,1915.45,701.78,1915.43Zm-1.9,9.03c-.33,1.18-.94,2.74-1.92,2.93a2.652,2.652,0,0,1-2.66-2.33v-.01l.18-1.76v-.01a5.038,5.038,0,0,1,.77-1.34c1.22-1.57,2.2-1.27,2.88-.58A3.188,3.188,0,0,1,699.88,1924.46Z" fill="#2c437a"/>
        <path id="Path_1994" data-name="Path 1994" d="M664.69,1960.48a4.324,4.324,0,0,1-1.54.85,8.919,8.919,0,0,1,1.48-.83C664.65,1960.49,664.67,1960.49,664.69,1960.48Z" fill="#283d75"/>
        <path id="Path_1995" data-name="Path 1995" d="M666.56,1961.31a2.625,2.625,0,0,0-.49-1.24c.39-.11.8-.21,1.2-.31A10.688,10.688,0,0,1,666.56,1961.31Z" fill="#283d75"/>
        <path id="Path_1996" data-name="Path 1996" d="M670.34,1958.78a.818.818,0,0,1,.01.1l-.03-.09C670.33,1958.8,670.34,1958.78,670.34,1958.78Z" fill="#283d75"/>
        <path id="Path_1997" data-name="Path 1997" d="M674.13,1957.26a3.434,3.434,0,0,1-.64-.72,5.863,5.863,0,0,0,.41-.46.554.554,0,0,1,.07-.09A12.357,12.357,0,0,0,674.13,1957.26Z" fill="#283d75"/>
        <path id="Path_1998" data-name="Path 1998" d="M678.11,1952.14a12.752,12.752,0,0,0-.12,3.7,6.428,6.428,0,0,1-2.06-2.16,1.7,1.7,0,0,1,.19-.19C676.77,1953.02,677.44,1952.56,678.11,1952.14Z" fill="#283d75"/>
        <path id="Path_1999" data-name="Path 1999" d="M701.78,1915.43l4.33-41.47a.281.281,0,0,1-.08-.01H706c-.03-.01-.06-.01-.09-.02a.392.392,0,0,1-.14-.03.506.506,0,0,1-.09-.02.355.355,0,0,1-.1-.02l-.12-.03c-.51-.13-1.29-.35-2.3-.64l-.3-.09h-.02c-.02-.01-.05-.02-.07-.03-.13-.04-.26-.07-.39-.11a.037.037,0,0,0-.03-.01,2.225,2.225,0,0,1-.24-.08,1.594,1.594,0,0,1-.21-.05c-.01-.01-.03-.01-.05-.02-.21-.06-.44-.13-.67-.2-.14-.04-.27-.08-.41-.12a3.376,3.376,0,0,0-.34-.1c-.84-.26-1.76-.54-2.74-.84a9.859,9.859,0,0,1-.02,4.52,2.465,2.465,0,0,1-.1.29,3.865,3.865,0,0,1-.57,1.15,5.437,5.437,0,0,1-1.85,1.68,11.155,11.155,0,0,1-3,1.15c-.37.09-.75.17-1.12.24-3.25.66-6.63.76-9.91,1.14a40.952,40.952,0,0,0-7.29,1.38,8.453,8.453,0,0,0-4.09,2.28c-1.13,1.32-.64,2.89.22,4.25a14.912,14.912,0,0,0,1.56,1.96,61.239,61.239,0,0,0,4.95,4.44c.91.73,1.84,1.43,2.8,2.11.07.05.15.1.22.16h.01a54.573,54.573,0,0,1,6.88,5.71,11.029,11.029,0,0,1,2.49,10.54c-1.19,3.95-4.15,7.13-4.53,11.35-.4,4.49,2.58,8.21,3.1,12.54.23-.19.47-.38.7-.56.34-.27.68-.53,1.02-.77.7-.53,1.38-1.01,2.02-1.44,1.29-.86,2.42-1.53,3.22-1.99.72-.41,1.18-.65,1.26-.68a19.8,19.8,0,0,0-1.41,2.08,54.98,54.98,0,0,0-3.84,8.27c-.96,2.51-1.8,5.05-2.49,7.27q.345-.39.69-.81c.41-.5.85-1.09,1.32-1.75,1.05-1.5,2.23-3.38,3.53-5.43,1.94-3.04,4.12-6.48,6.48-9.6l1.51-14.42a2.694,2.694,0,0,1-.65-1.62C700.68,1915.78,701.19,1915.45,701.78,1915.43Zm-1.9,9.03c-.33,1.18-.94,2.74-1.92,2.93a2.652,2.652,0,0,1-2.66-2.33v-.01l.18-1.76v-.01a5.038,5.038,0,0,1,.77-1.34c1.22-1.57,2.2-1.27,2.88-.58A3.188,3.188,0,0,1,699.88,1924.46Z" fill="#283d75"/>
        <path id="Path_763" data-name="Path 763" d="M690.41,1943.34c-.96,2.51-1.8,5.05-2.49,7.27q.345-.39.69-.81c.41-.5.85-1.09,1.32-1.75,1.05-1.5,2.23-3.38,3.53-5.43l.79-7.55A54.98,54.98,0,0,0,690.41,1943.34Zm-15.49,8.15a11.248,11.248,0,0,0,1.01,2.19,6.428,6.428,0,0,0,2.06,2.16,12.752,12.752,0,0,1,.12-3.7v-.02c.05-.3.1-.59.17-.88Zm-38.56,2.81-3.25.23a8.494,8.494,0,0,0,.38,4.45,7.867,7.867,0,0,0,.39.84l1.32-1.38,1.38-1.45.23.9.53,2.13.13-.01.32-.83.73-1.94,1.21-3.19Zm34.32-2.5-9.76.71-10.57.77-3.89.28-5.62.41-.78.06a20.94,20.94,0,0,0-.27,2.69,3.95,3.95,0,0,0,.3,1.89c.16.27.34.37.52.34.73-.06,1.51-1.96,1.51-1.96a22.72,22.72,0,0,0,.85,2.62l3.86-.28c1.24-1.82,2.2-4.17,1.23-4.91,0,0,1.75,1.03,1.57,4.71l4.2-.31a5.338,5.338,0,0,1,1.52-2.1,12.4,12.4,0,0,0-.4,1.83v.01c-.11.06-.21.13-.32.2l.3-.02,4.46-.33a6.385,6.385,0,0,0,.71-2,4.212,4.212,0,0,0-.51-2.98.01.01,0,0,1,.01-.01,8.24,8.24,0,0,1,1.64,2.96,8.047,8.047,0,0,1,.37,1.87l6.16-.45a4.562,4.562,0,0,0-.33-2.58,4.323,4.323,0,0,0-.34-.53s.19.16.48.43a14.526,14.526,0,0,1,2.17,2.54l.48-.04a21.941,21.941,0,0,1,.34-5.36C670.6,1952.1,670.64,1951.95,670.68,1951.8Zm3.61-.27-1.78.13a9.9,9.9,0,0,0,.98,4.88,3.434,3.434,0,0,0,.64.72,12.357,12.357,0,0,1-.16-1.27A11.622,11.622,0,0,1,674.29,1951.53Zm-37.93,2.77,1,3.39.43,1.49.73-1.94,1.21-3.19Zm4.48-.33-.78.06a20.94,20.94,0,0,0-.27,2.69,3.95,3.95,0,0,0,.3,1.89c.16.27.34.37.52.34l.12-2.63q2.145-.945,4.2-2.05a6.644,6.644,0,0,1,1.53-.71Zm9.51-.69a27.6,27.6,0,0,1,3.27.43,26,26,0,0,0,2.89.49,5.367,5.367,0,0,0,3.08-.77.01.01,0,0,1,.01-.01,10.684,10.684,0,0,0,1.32-.91Zm-13.99,1.02,1,3.39.43,1.49.73-1.94,1.21-3.19Zm3.7-.27a20.94,20.94,0,0,0-.27,2.69,3.95,3.95,0,0,0,.3,1.89c.16.27.34.37.52.34l.12-2.63.11-2.35Zm-3.7.27,1,3.39.43,1.49.73-1.94,1.21-3.19Zm3.7-.27a20.94,20.94,0,0,0-.27,2.69c.32-.13.63-.26.94-.4l.11-2.35Zm-3.7.27,1,3.39.43,1.49.73-1.94,1.21-3.19Zm3.7-.27a20.94,20.94,0,0,0-.27,2.69c.32-.13.63-.26.94-.4l.11-2.35Zm-3.7.27,1,3.39.43,1.49.73-1.94,1.21-3.19Zm3.7-.27a20.94,20.94,0,0,0-.27,2.69c.32-.13.63-.26.94-.4l.11-2.35Zm57.51-77.68-.23.02c-.73-.18-3.14-.86-11.07-3.33q.135-1.005.21-2.01a35.74,35.74,0,0,0-40.12-38.36c-.49.06-.99.13-1.49.23h-.01a33.677,33.677,0,0,0-4.21.98,1.211,1.211,0,0,0-.18.05,35.762,35.762,0,0,0-23.85,44.6c-.76.37-1.47.7-2.11,1.01-5.05,2.41-6.78,3.17-7.36,3.41l-3.07.23,17.36,68.04,1.62,6.33a17.094,17.094,0,0,0,2.66-6.56,17.36,17.36,0,0,0,.2-4.94,30.405,30.405,0,0,1,.56,4.61,21.539,21.539,0,0,1-1.24,9.17,10.346,10.346,0,0,0,3.91-4.96c-.13.36-.95,3.04.68,4.55a34.491,34.491,0,0,1,1.74-4.78l-3.23.24-1.17-4.6-16.02-62.77c1.14-.52,2.73-1.26,5-2.35,1.46-.69,3.21-1.54,5.3-2.54l2.4-1.15-.96-2.49a29.976,29.976,0,0,1,22.47-40.29c.24-.05.48-.09.73-.13a30.112,30.112,0,0,1,18.78,3.1h.01a30,30,0,0,1,15.28,32.78l-.07.35-.48,2.22,2.51.79c3.94,1.23,6.81,2.12,8.91,2.77,1.25.38,2.24.67,3.01.89l-5.9,56.41c.34-.27.68-.53,1.02-.77.7-.53,1.38-1.01,2.02-1.44,1.29-.86,2.42-1.53,3.22-1.99l.9-8.61v-.01l.18-1.76v-.01l4.93-47.13Zm-61.21,77.95,1,3.39.43,1.49.73-1.94,1.21-3.19Zm3.7-.27a20.94,20.94,0,0,0-.27,2.69c.32-.13.63-.26.94-.4l.11-2.35Zm-3.7.27,1,3.39.43,1.49.73-1.94,1.21-3.19Zm3.7-.27a20.94,20.94,0,0,0-.27,2.69c.32-.13.63-.26.94-.4l.11-2.35Zm-3.7.27,1,3.39.43,1.49.73-1.94,1.21-3.19Zm3.7-.27a20.94,20.94,0,0,0-.27,2.69,3.95,3.95,0,0,0,.3,1.89c.16.27.34.37.52.34l.12-2.63.11-2.35Zm-3.7.27,1,3.39.43,1.49.73-1.94,1.21-3.19Zm3.7-.27a20.94,20.94,0,0,0-.27,2.69,3.95,3.95,0,0,0,.3,1.89c.16.27.34.37.52.34l.12-2.63.11-2.35Zm10.29-.75a27.6,27.6,0,0,1,3.27.43,26,26,0,0,0,2.89.49,5.367,5.367,0,0,0,3.08-.77.01.01,0,0,1,.01-.01,10.684,10.684,0,0,0,1.32-.91Zm-13.99,1.02,1,3.39.43,1.49.73-1.94,1.21-3.19Zm4.48-.33-.78.06a20.94,20.94,0,0,0-.27,2.69,3.95,3.95,0,0,0,.3,1.89c.16.27.34.37.52.34l.12-2.63q2.145-.945,4.2-2.05a6.644,6.644,0,0,1,1.53-.71Zm-4.48.33-3.25.23a8.494,8.494,0,0,0,.38,4.45,7.867,7.867,0,0,0,.39.84l1.32-1.38,1.38-1.45.23.9.53,2.13.13-.01.32-.83.73-1.94,1.21-3.19Zm4.48-.33-.78.06a20.94,20.94,0,0,0-.27,2.69,3.95,3.95,0,0,0,.3,1.89c.16.27.34.37.52.34l.12-2.63q2.145-.945,4.2-2.05a6.644,6.644,0,0,1,1.53-.71Zm20.08-1.46-10.57.77a27.6,27.6,0,0,1,3.27.43,26,26,0,0,0,2.89.49,5.367,5.367,0,0,0,3.08-.77.01.01,0,0,1,.01-.01,8.24,8.24,0,0,1,1.64,2.96,15.774,15.774,0,0,1,2.17.2,4.435,4.435,0,0,0,2.33-.37,13.685,13.685,0,0,0,1.7-.99,4.323,4.323,0,0,0-.34-.53s.19.16.48.43a13.527,13.527,0,0,0,2.99-2.86c.03-.16.07-.31.11-.46Z" fill="#d6d7db" opacity="0.64" style="mix-blend-mode: overlay;isolation: isolate"/>
        <path id="Path_2000" data-name="Path 2000" d="M687.92,1950.61c.69-2.22,1.53-4.76,2.49-7.27l-.48,4.71c-.47.66-.91,1.25-1.32,1.75Q688.265,1950.22,687.92,1950.61Z" fill="#7393d2"/>
        <path id="Path_2001" data-name="Path 2001" d="M697.05,1877.51l-5.87,58.15c-.64.43-1.32.91-2.02,1.44l5.99-57.92.05-.45c-.39.03-6.31-1.78-13.7-4.1.03-.16.06-.33.08-.49a39.83,39.83,0,0,0,.46-9.57,31.725,31.725,0,0,0-33-29.4l.96-.09a31.766,31.766,0,0,1,31.7,19.71,31.355,31.355,0,0,1,2.27,9.68,31.887,31.887,0,0,1-.59,8.77c-.01.06-.02.11-.03.17,7.19,2.25,12.96,4.02,13.65,4.09A.109.109,0,0,0,697.05,1877.51Z" fill="#7393d2"/>
        <g id="Group_90" data-name="Group 90">
          <path id="Path_765" data-name="Path 765" d="M681.463,1887.1l-23.357,5.115-1.169-30.746-18.546,1.794,6.2,31.5-24.71.7,4.917,15.348,21.83-3.618.8,5-.653,36.28,18.343-2.557-6.152-34.313-.233-4.931,19.532-1.425Z" fill="#2a3671"/>
          <g id="Group_89" data-name="Group 89">
            <path id="Path_766" data-name="Path 766" d="M658.21,1892.45l-1.274-30.984-3.019.292,3.036,31.223Z" fill="#5277b3"/>
            <path id="Path_767" data-name="Path 767" d="M624.085,1908.592l.712,2.224,21.83-3.618-.327-2.03Z" fill="#5277b3"/>
            <path id="Path_768" data-name="Path 768" d="M655.639,1904.848" fill="#5277b3"/>
            <path id="Path_769" data-name="Path 769" d="M681.464,1887.095l-3.558.779-2.733,15.548-19.532,1.426.232,4.931,6.153,34.312-15.2,2.119-.04,2.266,18.343-2.557-6.152-34.312-.233-4.931,19.532-1.425Z" fill="#5277b3"/>
          </g>
        </g>
      </g>
      <g id="Group_92" data-name="Group 92">
        <path id="Path_2002" data-name="Path 2002" d="M695.48,1923.29l-.18,1.76A3.24,3.24,0,0,1,695.48,1923.29Z" fill="#151e21"/>
        <path id="Path_2003" data-name="Path 2003" d="M654.95,1958.56a1.1,1.1,0,0,1-.02.18l-.3.02C654.74,1958.69,654.84,1958.62,654.95,1958.56Z" fill="#151e21"/>
        <path id="Path_2004" data-name="Path 2004" d="M659.6,1953.42a.01.01,0,0,0-.01.01.406.406,0,0,0-.05-.09C659.56,1953.37,659.58,1953.39,659.6,1953.42Z" fill="#151e21"/>
      </g>
    </g>
  </g>
</svg>
