<svg xmlns="http://www.w3.org/2000/svg" width="23.363" height="34.333" viewBox="0 0 23.363 34.333">
  <g id="Group_48" data-name="Group 48" transform="translate(-2315.991 -466.143)">
    <g id="Group_45" data-name="Group 45" transform="translate(2329.378 466.379)">
      <g id="Group_44" data-name="Group 44" transform="translate(0 0)">
        <g id="surface5">
          <path id="Path_683" data-name="Path 683" d="M2388.775,467.426c.154.043.3.085.459.131l1.066-.131h-1.525" transform="translate(-2388.775 -467.426)" fill="#b5bd00"/>
          <path id="Path_684" data-name="Path 684" d="M2402.827,639.179a.838.838,0,0,1-.29.017c.076,0,.179-.011.29-.017" transform="translate(-2400.006 -607.587)" fill="#b5bd00"/>
        </g>
      </g>
    </g>
    <g id="Group_47" data-name="Group 47" transform="translate(2315.991 466.143)">
      <g id="Group_46" data-name="Group 46" transform="translate(0)">
        <path id="Path_685" data-name="Path 685" d="M2339.354,484.089v3.122h-.779v-.138h-.136v.78h-.779v.137h.137v.781h-2.336v-.137h-.137v.137h.137v3.12h-.137v.137h.137v-.137h.778v1.561h-.137v.137h.137v-.137h.779v2.341h-1.557v-.137h-.137v.137h.137v.781h-.779v.78h-1.558v-.137h-.916v.137h.137v1.561h-1.557v-.137h-.137v.137h.137v1.561h-6.23v-1.561H2323v-.781h-1.558v-.78h.137v-.137h-.137v.137h-.779v-.78h.137v-.137h-.137v.137h-.779v-.781h.137v-.137h-.137v.137h-.779v-3.12h.779v.137h.137v-.137h-.137v-.781h.779v-1.56h.137V490.2h-.137v.137h-.779v-1.561h.137v-.137h-.137v.137h-2.336v-.781h.137v-.137h-.137v.137h-.779v-.78h.137v-.138h-.137v.138h-.778v-3.122h.778v.138h.916v-.138h-.137v-2.341h.137v-.137h-.137v.137h-.779v-7.8h.779v.138h.137v-.138h-.137v-1.561h.779v.138h.137v-.138h-.137v-1.56h.779v-.781h.779v.137h.137v-.137h-.137v-.78h.779v.137h.137v-.137h-.137v-.78h.779v.137h.137v-.137h-.137V467.7H2323v-.78h1.558v-.781h7.009v.781h2.336v.78h.779v.781h.779v.78h.778v.78h.779v.781h.779v.78h.778v8.583h-.136v2.2h-.642v.918h-.137v.137h.137v-.137h.778v.78h-.136v.138h.136v-.138h.779" transform="translate(-2315.991 -466.143)" fill="#100f0d"/>
      </g>
    </g>
    <path id="Path_686" data-name="Path 686" d="M2346.405,542.164V540.6h-.779v2.341h.779Zm1.557-1.561h.779v-.78h-2.336v.78Zm-.779,2.341h-.778v.781h2.336v-.781Zm.779,4.682h-.779v1.561h.779Zm-.779,4.681h-.778v1.561h.778v-.781h.779v-1.56h-.779Zm1.558-2.341v-.78h-.779v.78Zm0-7.8v.78h.779V540.6h-.779Zm.779,7.023v.78h.779v-1.561h-.779Zm1.557,2.341v-.781h-.778v.781h-.779v-.781h-.779v2.341h.779v-.78h1.557Zm0,2.341h.78v-.781h-.78Zm1.558-4.681h-.778v.78h.778Zm.778.78v.78h.779v-1.56h-.779Zm0,2.341h-.778v-.78h-.778v1.56h2.336v-1.56h-.779Zm2.337-12.484v-.781h-.779v2.342h.779Zm-.779,11.7v1.56h.779v-2.341h-.779Zm1.557-3.122h-1.557v1.561h.779v-.78h.778Zm.779-9.364h.779v-.78h-2.336v.78Zm-.779,2.342h-.778v.78h2.336v-.78Zm0,9.363h.779v-.78h-.779Zm.779,1.561h-.779v1.561h1.558v-.781h-.779Zm0-2.341h.779v-.78h-.779Zm1.558-10.925v2.342h-.779v-2.342h.779" transform="translate(-24.184 -58.854)" fill="#fff"/>
    <path id="Path_687" data-name="Path 687" d="M2334.58,502.523v.781h.779v-.781Zm-1.558-1.561v-.78h-.779v.78Zm3.115,3.122v-.78h-.778v2.341h.778v.78h.779v-1.561h-.779Zm-9.345-2.341h.779v-.781h-.779Zm.779-.781h.779v-.78h-.779Zm4.673-1.56h-3.894v.78h3.894Zm8.567,7.8h-.779v.78h.779Zm1.558,1.56h.778v-.78h-.778Zm-3.894-2.341h.778v-.78h-.778Zm-8.567.781v.78h.779v-1.561h-.779Zm7.009-6.243h.779v-.78h-.779Zm3.894-1.56v-.781h-2.336v.781Zm-3.115.78h.78v-.78h-.78Zm-8.566-6.242v-.781h-.779v.781Zm-1.558,0v.78h.779v-.78Zm-2.336,3.12v-2.341h-.779v3.122h.779Zm0,6.243v2.341h.779v-3.122h-.779Zm1.558-10.145v.781h.779v-.781Zm3.115,1.561v.781h-.778v-.781h-.779v1.561h2.336v-2.341h-1.557v.78Zm-2.336-3.12h-.779v.78h.779Zm.779,1.56v-.78h-.779v.78Zm-1.557-.78h-.779v.78h.779Zm14.8,12.484h.779v-.78h-.779Zm3.115-3.9V503.3h.778v-2.342Zm-3.894,10.145v.78h.779v-1.561h-.779Zm3.894-11.7v-1.561h-.78v3.12h.78Zm-2.336,3.9v.78h.778v-1.561h-.778Zm-15.576.78v.78h.779v.781h.779v-1.561Zm6.23,3.9v.78h.779v-.78Zm2.336,0v-1.561h-.779v2.341h-.779v.781h2.336v-.781h-.778Zm-2.336-3.122h.779v-.78h-1.558v1.561h.779Zm3.115,3.122h.779v.78h-.779v-.78" transform="translate(-6.907 -20.775)" fill="#007737"/>
    <path id="Path_688" data-name="Path 688" d="M2321.78,511.347v-3.12H2321v3.9h.779Zm.779-4.681v-2.341h-.779v3.12h.779Zm0,10.925h-.779v-.781H2321v.781h-.779v.78H2321v.78h2.337v-.78h-.779Zm2.336-9.364h-1.557v.78h1.557Zm.779,1.561h2.336v-.781h-3.115v.781Zm0-1.561h.778v-1.561h-1.558v.78h.779Zm.778,9.364v-1.561h-1.558v.78h.779v.781Zm.779,0h.779v-.781h-.779Zm.779-.781h.779v-.78h-.779Zm.779,7.8v.78h-.779v-.78h-.779v.78h-.779v.781h2.336v.78h.779v-.78h.779v-1.561Zm3.894-3.9h-.778v.781h.778Zm0,4.681h-1.557v.781h3.115v-.781Zm.779-10.923v.78h.779v-.78Zm0,7.023h.779v-.781h-.779Zm.779-5.462h.78v-.781h-.78Zm2.336-.781v.781h1.558v-.781Zm.779,7.8v.781h.779v-1.561h-.779Zm.779-8.583h.779v-.78h-.779Zm3.893,2.341v2.341h-2.336v-.78h1.558v-1.561h.778" transform="translate(-3.453 -31.159)" fill="#33452f"/>
    <path id="Path_689" data-name="Path 689" d="M2322.559,475.85v.781h-.779v-.781Zm3.115,20.288h-.779v-1.561h.779Zm.778-6.242v.78h-.778v.78h-.779V493.8h-.779v-1.561h-.779v-1.561h-.779v-.78h-.779v-.781H2321v.781h-.779v-2.342h1.558v.781h.779v-3.122H2321v-.78h.779v-4.682h.779v-3.12h1.557v1.561h.779v1.56h.779v.781h-2.336v1.561h.779v-.781h.779v1.561h-.779v.78h-.779v3.9h.779v.781h.779v.78h.779v.781Zm.779-3.122h-.779v-.78h.779Zm6.23,0v.78h-.779v-1.56h.779Zm3.115-1.561h-.779v-.78h.779Zm2.337,11.7h.778v1.561h-.778v.78h-1.558v.781h-.779v.78h-1.557v.78h-.78v.781h-.779v.78H2331.9v-.78h-.779v.78h-2.337V501.6h-.779v-.78h-3.115v-.78h-.779v-.781h-.779v-3.12h1.557v2.341h3.894v.78h.779v-.78h4.673V497.7h.78v.781h3.115v-1.561h-.779v-.78h.779v-.781h.779Zm-2.337-6.242v-.78h.779v.78Zm-.779-10.144h-1.558v.78h-.779v.781h-.779v-.781h.779v-.78h.779v-.781h2.336v.781Zm5.452,7.022v-.78h-.78v-6.242h.78v-3.9h-.78V475.07h-.779v-.78h-.778v-.781h-.779v-.78h-.779v-.78H2335.8v.78h.779v.78h-.779v1.561h-.778v.78h.778v.781h-.778v.78h-.78v-.78h-.779v-.781h.779v-.78h-.779v-.78h1.558v-.781h-.78v-.78h.78v-1.561h-1.558v-.78h-2.336v.78h-3.894v.781h-2.337v.78h-.779v.78h-.779v.781h1.557v1.56h1.558v.781h.779v2.341h-.779v1.561h2.336v.78h-.779v.781h.779v.78h.779v1.561h.779v.78h-.779v1.561h1.558v-3.9h.779v3.122h.778v-1.561h.779v-1.561h.779v-.78h.78v-.781h2.336v-.78h.779v.78h-.779v.781h.779v.78h.779v1.561h.778v3.12h-1.557v.781h-.779v.78h-.779v-.78h-.779v.78h-.778v-.78h-.78v-.781h-.779v3.9h-.779v.781h-2.336v-.781h-.779v-2.341h.779v-1.561h-.779v.781h-.779v.78h-.779v.781h-.779v.78h-.779v1.561h.779V493.8h1.557v-.781h.779v.781h2.336v-.781h.778v.781h.779v-.781h2.336v-1.561h.779v.781h.779v-.781h.779v.781h.779v-1.561h2.336v-1.561h.778v-1.561h-.778" transform="translate(-3.453 -3.465)" fill="#b5bd00"/>
  </g>
</svg>
