<svg id="Layer_1" data-name="Layer 1" xmlns="http://www.w3.org/2000/svg" viewBox="00 00 200 200">
    <defs>
        <style>
            .cls-1{fill:#17181b;stroke:#b5bd00;stroke-miterlimit:10;stroke-width:5px;}.cls-2{fill:#b5bd00;}.cls-3{fill:none;}
        </style>
    </defs>
    <path class="cls-1" d="M46,94a85.8,85.8,0,1,1,85.8,85.8h0A85.91,85.91,0,0,1,46,94Z"
          transform="translate(-32 5.83)"/>
    <path class="cls-2"
          d="M170.4,59.07a91.2,91.2,0,0,0-22.8-7,66.25,66.25,0,0,0-2.9,6,82.55,82.55,0,0,0-25.3,0,56,56,0,0,0-3-6,86.3,86.3,0,0,0-22.8,7.1c-14.4,21.5-18.3,42.4-16.4,63.1a90,90,0,0,0,28,14.1,65,65,0,0,0,6-9.7,54.1,54.1,0,0,1-9.4-4.5c.8-.6,1.5-1.2,2.3-1.8a65.37,65.37,0,0,0,56,0c.8.6,1.5,1.2,2.3,1.8a55,55,0,0,1-9.5,4.5,65,65,0,0,0,6,9.7,91.11,91.11,0,0,0,28-14.1C189.1,98.27,182.9,77.47,170.4,59.07Zm-56.8,50.4c-5.5,0-9.9-5-9.9-11.1s4.4-11.2,9.9-11.2,10,5,10,11.2S119.2,109.47,113.6,109.47Zm36.8,0c-5.5,0-9.9-5-9.9-11.1s4.4-11.2,9.9-11.2,10,5,9.9,11.2S155.9,109.47,150.4,109.47Z"
          transform="translate(-32 5.83)"/>
    <rect class="cls-3" width="200" height="200"/>
</svg>