<svg id="Layer_1" data-name="Layer 1" xmlns="http://www.w3.org/2000/svg" viewBox="0 0 29.36 29.36"><defs><style>.cls-1{fill:none;stroke:#828282;stroke-miterlimit:3.5;stroke-width:0.44px;}.cls-2{fill:#b8c00d;}</style></defs><path class="cls-1" d="M24.46,8.41A14.46,14.46,0,1,1,10.29-6.34,14.46,14.46,0,0,1,24.46,8.41Z" transform="translate(4.68 6.56)"/><path id="Icon_awesome-telegram-plane" data-name="Icon awesome-telegram-plane" class="cls-2" d="M17,3.51l-2.34,11c-.17.77-.64,1-1.29.6L9.82,12.52,8.1,14.17a.9.9,0,0,1-.71.35l.25-3.63,6.6-6c.29-.25-.06-.4-.44-.14L5.64,9.92,2.12,8.82c-.76-.24-.78-.76.16-1.13L16,2.4c.64-.24,1.19.14,1,1.11Z" transform="translate(4.68 6.56)"/></svg>