<svg id="Layer_1" data-name="Layer 1" xmlns="http://www.w3.org/2000/svg" viewBox="0 0 29.36 29.36">
    <defs>
        <style>.cls-1{fill:#b8c00d;}.cls-2{fill:none;stroke:#828282;stroke-miterlimit:3.5;stroke-width:0.44px;}</style>
    </defs>
    <path id="Icon_awesome-twitter" data-name="Icon awesome-twitter" class="cls-1"
          d="M16.69,6c0,.15,0,.3,0,.45A9.75,9.75,0,0,1,7,16.24H6.88a9.68,9.68,0,0,1-5.3-1.55,7.7,7.7,0,0,0,.83.05A6.93,6.93,0,0,0,6.7,13.26a3.46,3.46,0,0,1-3.23-2.39,4.74,4.74,0,0,0,.65.05A3.5,3.5,0,0,0,5,10.8,3.45,3.45,0,0,1,2.26,7.42v0a3.46,3.46,0,0,0,1.56.44A3.45,3.45,0,0,1,2.76,3.2,9.83,9.83,0,0,0,9.87,6.81,4.23,4.23,0,0,1,9.79,6a3.45,3.45,0,0,1,6-2.36A6.93,6.93,0,0,0,18,2.83a3.49,3.49,0,0,1-1.52,1.9,6.83,6.83,0,0,0,2-.54A7.31,7.31,0,0,1,16.69,6Z"
          transform="translate(4.68 6.56)"/>
    <path class="cls-2" d="M24.46,8.41A14.46,14.46,0,1,1,10.29-6.34,14.46,14.46,0,0,1,24.46,8.41Z"
          transform="translate(4.68 6.56)"/>
</svg>