<svg xmlns="http://www.w3.org/2000/svg" xmlns:xlink="http://www.w3.org/1999/xlink" version="1.1" width="1000" height="1000" viewBox="0 0 1000 1000" xml:space="preserve">
<desc>Created with Fabric.js 3.5.0</desc>
<defs>
</defs>
<rect x="0" y="0" width="100%" height="100%" fill="#ffffff"/>
<g transform="matrix(5.1929 0 0 5.1929 499.9967 499.9967)" id="624293">
<g style="" vector-effect="non-scaling-stroke">
		<g transform="matrix(1 0 0 1 -0.2 -0.17)" id="Layer_1">
<path style="stroke: rgb(181,189,0); stroke-width: 3; stroke-dasharray: none; stroke-linecap: butt; stroke-dashoffset: 0; stroke-linejoin: miter; stroke-miterlimit: 10; is-custom-font: none; font-file-url: none; fill: rgb(23,24,27); fill-rule: nonzero; opacity: 1;" transform=" translate(-131.8, -94)" d="M 46 94 a 85.8 85.8 0 1 1 85.8 85.8 h 0 A 85.91 85.91 0 0 1 46 94 Z" stroke-linecap="round"/>
</g>
		<g transform="matrix(1 0 0 1 0.0445 0.05)" id="Layer_1">
<path style="stroke: none; stroke-width: 1; stroke-dasharray: none; stroke-linecap: butt; stroke-dashoffset: 0; stroke-linejoin: miter; stroke-miterlimit: 4; is-custom-font: none; font-file-url: none; fill: rgb(181,189,0); fill-rule: nonzero; opacity: 1;" transform=" translate(-132.0445, -94.22)" d="M 170.4 59.07 a 91.2 91.2 0 0 0 -22.8 -7 a 66.25 66.25 0 0 0 -2.9 6 a 82.55 82.55 0 0 0 -25.3 0 a 56 56 0 0 0 -3 -6 a 86.3 86.3 0 0 0 -22.8 7.1 c -14.4 21.5 -18.3 42.4 -16.4 63.1 a 90 90 0 0 0 28 14.1 a 65 65 0 0 0 6 -9.7 a 54.1 54.1 0 0 1 -9.4 -4.5 c 0.8 -0.6 1.5 -1.2 2.3 -1.8 a 65.37 65.37 0 0 0 56 0 c 0.8 0.6 1.5 1.2 2.3 1.8 a 55 55 0 0 1 -9.5 4.5 a 65 65 0 0 0 6 9.7 a 91.11 91.11 0 0 0 28 -14.1 C 189.1 98.27 182.9 77.47 170.4 59.07 Z m -56.8 50.4 c -5.5 0 -9.9 -5 -9.9 -11.1 s 4.4 -11.2 9.9 -11.2 s 10 5 10 11.2 S 119.2 109.47 113.6 109.47 Z m 36.8 0 c -5.5 0 -9.9 -5 -9.9 -11.1 s 4.4 -11.2 9.9 -11.2 s 10 5 9.9 11.2 S 155.9 109.47 150.4 109.47 Z" stroke-linecap="round"/>
</g>
		<g transform="matrix(1 0 0 1 0 0)" id="Layer_1">
<rect style="stroke: none; stroke-width: 1; stroke-dasharray: none; stroke-linecap: butt; stroke-dashoffset: 0; stroke-linejoin: miter; stroke-miterlimit: 4; is-custom-font: none; font-file-url: none; fill: none; fill-rule: nonzero; opacity: 1;" x="-100" y="-100" rx="0" ry="0" width="200" height="200"/>
</g>
</g>
</g>
</svg>